<svg id="Capa_1" enable-background="new 0 0 510.001 510.001" height="512" viewBox="0 0 510.001 510.001" width="512" xmlns="http://www.w3.org/2000/svg" xmlns:xlink="http://www.w3.org/1999/xlink"><linearGradient id="lg1"><stop offset="0" stop-color="#b3dafe"/><stop offset="1" stop-color="#0182fc"/></linearGradient><linearGradient id="SVGID_1_" gradientUnits="userSpaceOnUse" x1="38.204" x2="323.319" xlink:href="#lg1" y1="135.264" y2="420.379"/><linearGradient id="lg2"><stop offset="0" stop-color="#0182fc" stop-opacity="0"/><stop offset="1" stop-color="#024c67"/></linearGradient><linearGradient id="SVGID_00000041268576262472519070000012390109771497645975_" gradientUnits="userSpaceOnUse" x1="302.07" x2="260.07" xlink:href="#lg2" y1="166.089" y2="198.756"/><linearGradient id="SVGID_00000049212796701256659860000017214601224621467780_" gradientUnits="userSpaceOnUse" x1="393.715" x2="345.048" xlink:href="#lg2" y1="182.857" y2="144.857"/><linearGradient id="SVGID_00000119102954231265651500000012244080242762439595_" gradientUnits="userSpaceOnUse" x1="384.537" x2="438.87" xlink:href="#lg2" y1="312.212" y2="312.212"/><linearGradient id="SVGID_00000044867146324405875270000001456062580925923743_" gradientUnits="userSpaceOnUse" x1="212.769" x2="212.769" xlink:href="#lg2" y1="327.655" y2="514.566"/><linearGradient id="SVGID_00000156561981966027056600000017631073537830431656_" gradientTransform="matrix(.707 .707 -.707 .707 -2098.834 -1962.061)" gradientUnits="userSpaceOnUse" x1="3181.695" x2="3210.71" y1="-232.983" y2="-232.983"><stop offset="0" stop-color="#fee45a"/><stop offset="1" stop-color="#fea613"/></linearGradient><linearGradient id="SVGID_00000129183251684917533720000005365884701833905074_" gradientUnits="userSpaceOnUse" x1="255.353" x2="234.749" y1="205.912" y2="226.515"><stop offset="0" stop-color="#fea613" stop-opacity="0"/><stop offset="1" stop-color="#e94444"/></linearGradient><linearGradient id="lg3"><stop offset="0" stop-color="#fd4755"/><stop offset="1" stop-color="#a72b2b"/></linearGradient><linearGradient id="SVGID_00000039104072244762432430000001470273789994306707_" gradientUnits="userSpaceOnUse" x1="202.083" x2="211.855" xlink:href="#lg3" y1="227.76" y2="266.501"/><linearGradient id="lg4"><stop offset="0" stop-color="#a72b2b" stop-opacity="0"/><stop offset="1" stop-color="#42210b"/></linearGradient><linearGradient id="SVGID_00000103234433032390286560000009613190160066865050_" gradientUnits="userSpaceOnUse" x1="197.901" x2="217.446" xlink:href="#lg4" y1="264.114" y2="243.173"/><linearGradient id="SVGID_00000164496155596886422870000013012678474129203100_" gradientTransform="matrix(.707 .707 -.707 .707 -2098.834 -1962.061)" gradientUnits="userSpaceOnUse" x1="3197.65" x2="3197.65" xlink:href="#lg3" y1="-103.417" y2="-74.571"/><linearGradient id="SVGID_00000137833999528486169280000000809287929177351809_" gradientUnits="userSpaceOnUse" x1="216.667" x2="233.67" xlink:href="#lg4" y1="244.597" y2="227.594"/><linearGradient id="SVGID_00000099621782205422726590000001664295489218339719_" gradientUnits="userSpaceOnUse" x1="115.387" x2="155.327" xlink:href="#lg3" y1="308.184" y2="348.125"/><linearGradient id="SVGID_00000163752449695081915480000000646731409691226303_" gradientUnits="userSpaceOnUse" x1="165.774" x2="143.096" xlink:href="#lg3" y1="349.923" y2="327.244"/><linearGradient id="SVGID_00000067919850655861563560000007304285940306265784_" gradientUnits="userSpaceOnUse" x1="133.989" x2="111.311" xlink:href="#lg3" y1="318.138" y2="295.459"/><linearGradient id="SVGID_00000106120141959820962110000013877794714895216799_" gradientUnits="userSpaceOnUse" x1="102.485" x2="60.135" xlink:href="#lg4" y1="358.78" y2="401.129"/><linearGradient id="lg5"><stop offset="0" stop-color="#e1d3ce"/><stop offset="1" stop-color="#9e9797"/></linearGradient><linearGradient id="SVGID_00000021112182950234751170000016378625137102075563_" gradientUnits="userSpaceOnUse" x1="256.846" x2="228.708" xlink:href="#lg5" y1="204.418" y2="232.556"/><linearGradient id="SVGID_00000013871718784989904240000003639013537035395485_" gradientTransform="matrix(0 1 -1 0 757.577 -3333.694)" gradientUnits="userSpaceOnUse" x1="3727.075" x2="3655.288" xlink:href="#lg5" y1="383.655" y2="311.868"/><linearGradient id="SVGID_00000108270275924405920840000008402709787805380236_" gradientTransform="matrix(-1 0 0 1 3693.127 -398.144)" gradientUnits="userSpaceOnUse" x1="3625.244" x2="3553.457" xlink:href="#lg5" y1="485.486" y2="413.699"/><linearGradient id="SVGID_00000108988629207987394190000007088228823708127393_" gradientUnits="userSpaceOnUse" x1="211.441" x2="331.045" xlink:href="#lg1" y1="177.836" y2="502.263"/><linearGradient id="SVGID_00000183209112303862384820000010584534262655239596_" gradientUnits="userSpaceOnUse" x1="392.115" x2="513.609" xlink:href="#lg2" y1="280.857" y2="183.362"/><linearGradient id="SVGID_00000177455074310961469410000005840006131825860490_" gradientUnits="userSpaceOnUse" x1="430.849" x2="498.849" xlink:href="#lg2" y1="345.504" y2="363.504"/><linearGradient id="SVGID_00000150061367583980074060000011136904171328949147_" gradientUnits="userSpaceOnUse" x1="335.892" x2="284.892" y1="199.394" y2="391.394"><stop offset="0" stop-color="#e1d3ce" stop-opacity="0"/><stop offset="1" stop-color="#9e9797"/></linearGradient><linearGradient id="SVGID_00000076580384501420750500000014875044359425523647_" gradientUnits="userSpaceOnUse" x1="438.801" x2="258.801" y1="371.033" y2="291.033"><stop offset="0" stop-color="#433f43" stop-opacity="0"/><stop offset=".3007" stop-color="#3c393c" stop-opacity=".301"/><stop offset=".7373" stop-color="#292729" stop-opacity=".737"/><stop offset="1" stop-color="#1a1a1a"/></linearGradient><linearGradient id="lg6"><stop offset="0" stop-color="#fd4755" stop-opacity="0"/><stop offset="1" stop-color="#a72b2b"/></linearGradient><linearGradient id="SVGID_00000170251000515290212130000017826473375992107651_" gradientUnits="userSpaceOnUse" x1="233.048" x2="206.382" xlink:href="#lg6" y1="218.897" y2="286.231"/><linearGradient id="SVGID_00000081612818835003848990000000253593819409137335_" gradientUnits="userSpaceOnUse" x1="213.343" x2="197.343" xlink:href="#lg6" y1="225.869" y2="292.536"/><linearGradient id="SVGID_00000094611777582895864010000011418209284480778687_" gradientUnits="userSpaceOnUse" x1="108.512" x2="253.012" xlink:href="#lg6" y1="312.456" y2="362.956"/><linearGradient id="SVGID_00000160898549361077986410000005347592742092439981_" gradientUnits="userSpaceOnUse" x1="157.022" x2="125.022" xlink:href="#lg6" y1="343.907" y2="275.407"/><linearGradient id="SVGID_00000177453015248074466260000011049960538592826766_" gradientUnits="userSpaceOnUse" x1="144.746" x2="147.246" xlink:href="#lg6" y1="298.57" y2="232.07"/><linearGradient id="SVGID_00000078025094897095654530000000940170218082920875_" gradientUnits="userSpaceOnUse" x1="265.31" x2="265.31" xlink:href="#lg2" y1="432.295" y2="528.819"/><linearGradient id="SVGID_00000167354716674572627200000014116454936512659364_" gradientUnits="userSpaceOnUse" x1="315.983" x2="297.983" y1="241.801" y2="140.468"><stop offset="0" stop-color="#fff" stop-opacity="0"/><stop offset="1" stop-color="#fff"/></linearGradient><g><g><path d="m153.132 85.921c0-15.742-12.761-28.502-28.502-28.502h-96.128c-15.741 0-28.502 12.76-28.502 28.502v381.848c0 23.324 18.908 42.231 42.231 42.231h349.211c18.83 0 34.095-15.265 34.095-34.095v-327.387c0-18.83-15.265-34.095-34.095-34.095h-209.808c-15.742 0-28.502-12.761-28.502-28.502z" fill="url(#SVGID_1_)"/><path d="m391.443 114.423h-187.443v83.577h221.537v-49.482c0-18.83-15.264-34.095-34.094-34.095z" fill="url(#SVGID_00000041268576262472519070000012390109771497645975_)"/><path d="m391.443 114.423h-75.443v83.577h109.537v-49.482c0-18.83-15.264-34.095-34.094-34.095z" fill="url(#SVGID_00000049212796701256659860000017214601224621467780_)"/><path d="m391.443 114.423h-50.365v395.577h50.365c18.83 0 34.095-15.265 34.095-34.095v-327.387c-.001-18.83-15.265-34.095-34.095-34.095z" fill="url(#SVGID_00000119102954231265651500000012244080242762439595_)"/><path d="m425.537 475.906v-232.199h-425.537v224.061c0 23.325 18.908 42.232 42.231 42.232h349.211c18.831 0 34.095-15.264 34.095-34.094z" fill="url(#SVGID_00000044867146324405875270000001456062580925923743_)"/></g><g><g><path d="m427.611 94.054 32.187-57.591c2.517-4.504 1.736-10.131-1.912-13.779l-19.305-19.306c-3.648-3.648-9.276-4.429-13.779-1.912l-57.592 32.187c-3.967 2.217-6.262 6.558-5.86 11.085l1.364 15.368c.302 3.4-.918 6.76-3.332 9.173l-161.784 161.785c-4.503 4.503-4.503 11.804 0 16.307l16.294 16.294c4.503 4.503 11.804 4.503 16.307 0l161.784-161.784c2.414-2.414 5.773-3.634 9.173-3.332l15.368 1.364c4.529.403 8.87-1.892 11.087-5.859z" fill="url(#SVGID_00000156561981966027056600000017631073537830431656_)"/><path d="m295.897 197.969-32.602-32.602-65.697 65.697c-4.503 4.503-4.503 11.804 0 16.307l16.294 16.295c4.503 4.503 11.804 4.503 16.307 0z" fill="url(#SVGID_00000129183251684917533720000005365884701833905074_)"/><path d="m221.542 287.725-48.003-48.002 21.744-21.744 48.002 48.003z" fill="url(#SVGID_00000039104072244762432430000001470273789994306707_)"/><path d="m221.542 287.725-48.003-48.002 21.744-21.744 48.002 48.003z" fill="url(#SVGID_00000103234433032390286560000009613190160066865050_)"/><path d="m234.231 274.038-47.005-47.005c-5.53-5.53-6.742-14.047-2.975-20.901l3.855-7.014c5.642-10.265 19.556-12.246 27.839-3.963l50.163 50.163c8.283 8.283 6.302 22.196-3.963 27.839l-7.014 3.855c-6.852 3.768-15.37 2.556-20.9-2.974z" fill="url(#SVGID_00000164496155596886422870000013012678474129203100_)"/><path d="m234.231 274.038-47.005-47.005c-5.53-5.53-6.742-14.047-2.975-20.901l3.855-7.014c5.642-10.265 19.556-12.246 27.839-3.963l50.163 50.163c8.283 8.283 6.302 22.196-3.963 27.839l-7.014 3.855c-6.852 3.768-15.37 2.556-20.9-2.974z" fill="url(#SVGID_00000137833999528486169280000000809287929177351809_)"/><path d="m149.245 392.828c24.526-28.185 49.038-56.382 73.551-84.578 7.842-9.019 7.369-22.568-1.082-31.019l-37.681-37.681c-8.451-8.451-22-8.923-31.019-1.082-28.196 24.513-56.393 49.025-84.577 73.551-24.847 21.622-26.471 59.847-3.269 83.225.284.286.568.57.854.854 23.377 23.202 61.602 21.576 83.223-3.27z" fill="url(#SVGID_00000099621782205422726590000001664295489218339719_)"/><g><path d="m113.433 379.617c-6.672-6.672-6.672-17.489 0-24.161l57.874-57.874c6.672-6.672 17.489-6.672 24.161 0 6.672 6.672 6.672 17.489 0 24.161l-57.874 57.874c-6.672 6.672-17.489 6.672-24.161 0z" fill="url(#SVGID_00000163752449695081915480000000646731409691226303_)"/><path d="m81.648 347.832c-6.672-6.672-6.672-17.489 0-24.161l57.874-57.874c6.672-6.672 17.489-6.672 24.161 0 6.672 6.672 6.672 17.489 0 24.161l-57.874 57.874c-6.672 6.672-17.49 6.672-24.161 0z" fill="url(#SVGID_00000067919850655861563560000007304285940306265784_)"/></g><path d="m81.798 300.4c-4.453 3.874-8.909 7.745-13.362 11.62-24.847 21.622-26.471 59.847-3.269 83.225.284.286.568.57.854.854 23.377 23.201 61.602 21.575 83.223-3.271 3.875-4.453 7.746-8.909 11.62-13.362z" fill="url(#SVGID_00000106120141959820962110000013877794714895216799_)"/></g><g><path d="m442.752 304.612c-11.102-11.102-25.308-17.211-39.826-18.326-12.004-.922-23.33-5.922-31.843-14.435l-181.67-181.67c-8.513-8.513-13.513-19.839-14.435-31.843-1.115-14.518-7.224-28.724-18.326-39.826-16.691-16.69-40.392-22.093-61.622-16.214-3.239.895-4.103 5.091-1.512 7.23l28.076 23.112c7.864 6.472 8.436 18.309 1.234 25.511l-15.94 15.94c-7.202 7.202-19.039 6.63-25.511-1.234l-23.113-28.075c-2.139-2.592-6.335-1.728-7.23 1.512-5.879 21.23-.476 44.931 16.215 61.622 11.102 11.102 25.308 17.211 39.826 18.326 12.004.922 23.33 5.922 31.843 14.435l181.67 181.67c8.513 8.513 13.513 19.839 14.435 31.843 1.115 14.518 7.224 28.724 18.326 39.826 16.691 16.691 40.393 22.094 61.622 16.215 3.239-.895 4.103-5.091 1.512-7.23l-28.076-23.112c-7.864-6.472-8.436-18.309-1.234-25.511l15.94-15.94c7.202-7.202 19.039-6.63 25.511 1.234l23.112 28.076c2.139 2.592 6.335 1.728 7.23-1.512 5.879-21.231.477-44.933-16.214-61.624z" fill="url(#SVGID_00000021112182950234751170000016378625137102075563_)"/><path d="m374.249 388.618 38.571 22.167c.716-.171 1.43-.353 2.14-.549 3.245-.898 4.121-5.093 1.521-7.233l-28.075-23.113c-7.862-6.472-8.434-18.31-1.234-25.511l15.942-15.942c7.2-7.2 19.039-6.628 25.511 1.234l23.113 28.075c2.14 2.6 6.335 1.724 7.233-1.521.197-.711.378-1.424.549-2.14l-22.167-38.571c-9.977-17.361-33.718-20.511-47.877-6.352l-21.58 21.58c-14.157 14.158-11.008 37.898 6.353 47.876z" fill="url(#SVGID_00000013871718784989904240000003639013537035395485_)"/><path d="m72.647 87.015-22.167-38.571c.171-.716.353-1.43.549-2.14.898-3.245 5.093-4.121 7.233-1.521l23.113 28.075c6.472 7.862 18.31 8.434 25.511 1.234l15.942-15.942c7.2-7.2 6.628-19.039-1.234-25.511l-28.075-23.113c-2.6-2.14-1.724-6.335 1.521-7.233.711-.197 1.424-.378 2.14-.549l38.571 22.167c17.361 9.977 20.511 33.718 6.352 47.877l-21.58 21.58c-14.158 14.158-37.899 11.008-47.876-6.353z" fill="url(#SVGID_00000108270275924405920840000008402709787805380236_)"/></g></g><g><path d="m454.858 466.73c-5.283 25.213-27.516 43.27-53.277 43.27h-359.35c23.903 0 44.533-16.755 49.435-40.15l56.103-267.744c3.196-15.251 16.644-26.174 32.227-26.174h304.914c15.921 0 27.813 14.642 24.548 30.225z" fill="url(#SVGID_00000108988629207987394190000007088228823708127393_)"/><path d="m454.858 466.73c-5.283 25.213-27.516 43.27-53.277 43.27h-359.35c23.903 0 44.533-16.755 49.435-40.15l56.103-267.744c3.196-15.251 16.644-26.174 32.227-26.174h304.914c15.921 0 27.813 14.642 24.548 30.225z" fill="url(#SVGID_00000108988629207987394190000007088228823708127393_)"/><path d="m425.537 475.906v-299.974h-199.537v334.068h165.443c18.83 0 34.094-15.265 34.094-34.094z" fill="url(#SVGID_00000183209112303862384820000010584534262655239596_)"/><path d="m509.46 206.16-54.6 260.57c-5.29 25.21-27.52 43.27-53.28 43.27h-47.28l69.99-334.07h60.62c15.92 0 27.81 14.64 24.55 30.23z" fill="url(#SVGID_00000177455074310961469410000005840006131825860490_)"/><g><g><path d="m458.97 366.23c-.9 3.24-5.09 4.11-7.23 1.52l-23.12-28.08c-6.47-7.86-18.3-8.44-25.51-1.23l-15.94 15.94c-7.2 7.2-6.63 19.04 1.24 25.51l28.07 23.11c2.59 2.14 1.73 6.33-1.51 7.23-21.23 5.88-44.93.48-61.62-16.22-11.1-11.1-17.21-25.3-18.33-39.82-.92-12-5.92-23.33-14.43-31.84l-15.65-15.65-130.33-130.33c1.76-.29 3.55-.44 5.38-.44h95.17l95.92 95.92c8.52 8.51 19.84 13.51 31.85 14.44 14.51 1.11 28.72 7.22 39.82 18.32.68.68 1.35 1.38 1.99 2.09 15.12 16.54 19.86 39.17 14.23 59.53z" fill="url(#SVGID_00000150061367583980074060000011136904171328949147_)"/><path d="m374.249 388.618 38.571 22.167c.716-.171 1.43-.353 2.14-.549 3.245-.898 4.121-5.093 1.521-7.233l-28.075-23.113c-7.862-6.472-8.434-18.31-1.234-25.511l15.942-15.942c7.2-7.2 19.039-6.628 25.511 1.234l23.113 28.075c2.14 2.6 6.335 1.724 7.233-1.521.197-.711.378-1.424.549-2.14l-22.167-38.571c-9.977-17.361-33.718-20.511-47.877-6.352l-21.58 21.58c-14.157 14.158-11.008 37.898 6.353 47.876z" fill="url(#SVGID_00000076580384501420750500000014875044359425523647_)"/></g><path d="m192.289 194.047c-1.642 1.362-3.073 3.054-4.182 5.071l-3.855 7.014c-3.767 6.853-2.555 15.371 2.975 20.901l47.005 47.005c5.53 5.53 14.047 6.742 20.901 2.975l7.014-3.855c2.017-1.109 3.709-2.54 5.071-4.182z" fill="url(#SVGID_00000170251000515290212130000017826473375992107651_)"/><path d="m234.231 274.038-47.005-47.005c-.168-.168-.319-.346-.478-.519l-8.741 8.741c2.175 1.074 4.221 2.491 6.025 4.296l37.681 37.681c1.804 1.804 3.222 3.85 4.296 6.025l8.741-8.741c-.172-.16-.351-.311-.519-.478z" fill="url(#SVGID_00000081612818835003848990000000253593819409137335_)"/><path d="m184.033 239.55c-8.451-8.451-22-8.923-31.019-1.082-5.244 4.559-10.486 9.121-15.731 13.68l-33.593 160.318c16.719.664 33.652-5.96 45.554-19.638 24.526-28.185 49.038-56.382 73.551-84.578 7.842-9.02 7.369-22.568-1.082-31.019z" fill="url(#SVGID_00000094611777582895864010000011418209284480778687_)"/><g><path d="m195.468 297.581c-6.672-6.672-17.489-6.672-24.161 0l-55.086 55.086-5.057 24.134c.644.996 1.396 1.942 2.269 2.815 6.672 6.672 17.489 6.672 24.161 0l57.874-57.874c6.672-6.671 6.672-17.489 0-24.161z" fill="url(#SVGID_00000160898549361077986410000005347592742092439981_)"/><path d="m163.683 289.957c6.672-6.672 6.672-17.489 0-24.161s-17.489-6.672-24.161 0l-6.45 6.45-12.809 61.132z" fill="url(#SVGID_00000177453015248074466260000011049960538592826766_)"/></g></g><path d="m454.858 466.73 33.531-160.026h-362.537l-34.185 163.146c-4.903 23.395-25.533 40.15-49.436 40.15h359.349c25.761 0 47.995-18.057 53.278-43.27z" fill="url(#SVGID_00000078025094897095654530000000940170218082920875_)"/><path d="m488.389 306.704 21.068-100.547c3.265-15.581-8.625-30.222-24.543-30.224h-304.924c-15.58.003-29.026 10.924-32.221 26.174l-21.917 104.598h362.537z" fill="url(#SVGID_00000167354716674572627200000014116454936512659364_)"/></g></g></svg>