<svg id="Capa_1" enable-background="new 0 0 510 510" height="512" viewBox="0 0 510 510" width="512" xmlns="http://www.w3.org/2000/svg" xmlns:xlink="http://www.w3.org/1999/xlink"><linearGradient id="SVGID_1_" gradientUnits="userSpaceOnUse" x1="138.178" x2="359.475" y1="174.372" y2="395.67"><stop offset="0" stop-color="#fee45a"/><stop offset="1" stop-color="#fea613"/></linearGradient><linearGradient id="lg1"><stop offset="0" stop-color="#fe7701" stop-opacity="0"/><stop offset=".1854" stop-color="#f87204" stop-opacity=".185"/><stop offset=".4314" stop-color="#e7630c" stop-opacity=".431"/><stop offset=".7114" stop-color="#cb4b19" stop-opacity=".711"/><stop offset="1" stop-color="#a72b2b"/></linearGradient><linearGradient id="SVGID_2_" gradientUnits="userSpaceOnUse" x1="255" x2="255" xlink:href="#lg1" y1="390.306" y2="510.572"/><linearGradient id="SVGID_3_" gradientUnits="userSpaceOnUse" x1="165.245" x2="165.245" xlink:href="#lg1" y1="31.688" y2="118.418"/><linearGradient id="SVGID_4_" gradientUnits="userSpaceOnUse" x1="208.245" x2="208.245" xlink:href="#lg1" y1="31.688" y2="118.418"/><linearGradient id="SVGID_5_" gradientUnits="userSpaceOnUse" x1="303.709" x2="218.026" xlink:href="#lg1" y1="290.958" y2="205.275"/><linearGradient id="SVGID_6_" gradientUnits="userSpaceOnUse" x1="388.517" x2="186.826" xlink:href="#lg1" y1="429.191" y2="227.5"/><linearGradient id="lg2"><stop offset="0" stop-color="#eaf6ff"/><stop offset="1" stop-color="#b3dafe"/></linearGradient><linearGradient id="SVGID_7_" gradientUnits="userSpaceOnUse" x1="183.626" x2="325.928" xlink:href="#lg2" y1="232.849" y2="375.152"/><linearGradient id="lg3"><stop offset="0" stop-color="#d8ecfe" stop-opacity="0"/><stop offset="1" stop-color="#678d98"/></linearGradient><linearGradient id="SVGID_8_" gradientTransform="matrix(-1 0 0 1 567.098 0)" gradientUnits="userSpaceOnUse" x1="339.393" x2="317.22" xlink:href="#lg3" y1="338.439" y2="316.266"/><linearGradient id="SVGID_9_" gradientUnits="userSpaceOnUse" x1="214.308" x2="236.329" xlink:href="#lg3" y1="353.86" y2="375.881"/><linearGradient id="SVGID_10_" gradientTransform="matrix(-1 0 0 1 567.098 0)" gradientUnits="userSpaceOnUse" x1="285.117" x2="304.572" xlink:href="#lg3" y1="284.163" y2="303.618"/><linearGradient id="SVGID_11_" gradientUnits="userSpaceOnUse" x1="301.257" x2="328.477" xlink:href="#lg3" y1="258.201" y2="285.421"/><linearGradient id="SVGID_12_" gradientUnits="userSpaceOnUse" x1="289.552" x2="292.183" y1="317.259" y2="319.89"><stop offset="0" stop-color="#972437" stop-opacity="0"/><stop offset="1" stop-color="#42210b"/></linearGradient><linearGradient id="SVGID_13_" gradientUnits="userSpaceOnUse" x1="310.754" x2="328.173" xlink:href="#lg3" y1="366.899" y2="384.317"/><linearGradient id="SVGID_14_" gradientUnits="userSpaceOnUse" x1="255" x2="255" xlink:href="#lg3" y1="260.758" y2="213.775"/><linearGradient id="SVGID_15_" gradientUnits="userSpaceOnUse" x1="233.088" x2="259.682" xlink:href="#lg2" y1="178.4" y2="249.783"/><g><g><path d="m249.572 73.699c0-24.303-19.702-44.005-44.005-44.005h-161.562c-24.304 0-44.005 19.702-44.005 44.005v378.384c0 15.587 12.635 28.222 28.222 28.222h453.556c15.587 0 28.222-12.635 28.222-28.222v-321.778c0-15.587-12.635-28.222-28.222-28.222h-203.822c-15.676 0-28.384-12.708-28.384-28.384z" fill="url(#SVGID_1_)"/><path d="m0 320.404v131.679c0 15.587 12.635 28.222 28.222 28.222h453.556c15.587 0 28.222-12.635 28.222-28.222v-131.679z" fill="url(#SVGID_2_)"/><path d="m249.572 73.699c0-24.303-19.702-44.005-44.005-44.005h-153.033c18.032 0 32.65 14.618 32.65 32.65v15.923c0 13.154 10.663 23.816 23.816 23.816h168.956c-15.676 0-28.384-12.708-28.384-28.384z" fill="url(#SVGID_3_)"/><path d="m249.572 73.699c0-24.303-19.702-44.005-44.005-44.005h-67.033c18.032 0 32.65 14.618 32.65 32.65v15.923c0 13.154 10.663 23.816 23.816 23.816h82.956c-15.676 0-28.384-12.708-28.384-28.384z" fill="url(#SVGID_4_)"/></g><ellipse cx="255" cy="242.249" fill="url(#SVGID_5_)" rx="48.25" ry="45.75"/><path d="m510 452.083v-54.84l-188.586-188.585c0 17.148-6.99 33.555-19.357 45.435l-123.469 118.6 107.614 107.614h195.577c15.586-.001 28.221-12.637 28.221-28.224z" fill="url(#SVGID_6_)"/><g><path d="m333.829 361.532-50.393-50.388 26.001-25.997c13.385-13.39 20.804-30.531 22.25-48.069.002-.024.004-.048.006-.072.192-2.386-38.303-46.54-76.694-46.543-38.495-.003-76.886 44.151-76.693 46.543.002.024.004.048.006.072 1.446 17.538 8.865 34.679 22.25 48.069l26.001 25.997-50.393 50.388c-3.49 3.494-2.235 9.499 2.417 11.16 3.434 1.227 6.658 3.219 9.406 5.967 2.585 2.585 4.498 5.585 5.734 8.785 1.768 4.554 7.712 5.701 11.165 2.244l50.108-50.107 50.108 50.108c3.452 3.457 9.396 2.31 11.165-2.244 1.236-3.201 3.149-6.2 5.734-8.785 2.748-2.748 5.972-4.74 9.406-5.967 4.651-1.662 5.906-7.666 2.416-11.161zm-78.829-78.824-25.996-26.001c-6.947-6.942-10.773-16.175-10.773-25.996 0-3.611.518-7.143 1.521-10.507 1.712-5.795 4.861-11.099 9.252-15.49 6.942-6.947 16.175-10.773 25.996-10.773s19.054 3.826 25.996 10.773c4.39 4.39 7.54 9.695 9.252 15.49 1.003 3.364 1.521 6.896 1.521 10.507 0 9.821-3.826 19.054-10.773 25.996z" fill="url(#SVGID_7_)"/><g><path d="m193.728 387.443c-1.24-3.2-3.151-6.2-5.733-8.783-2.751-2.75-5.974-4.739-9.408-5.967-4.649-1.662-5.906-7.667-2.415-11.159l50.389-50.39 28.438 28.438-50.107 50.107c-3.455 3.456-9.399 2.31-11.164-2.246z" fill="url(#SVGID_8_)"/><path d="m179.613 373.09c3.049 1.242 5.908 3.097 8.38 5.569 2.585 2.585 4.498 5.585 5.734 8.785 1.768 4.554 7.712 5.701 11.165 2.244l50.108-50.107-20.939-20.934z" fill="url(#SVGID_9_)"/><g><g><path d="m283.437 311.145-28.438-28.438 25.749-25.749 28.438 28.438z" fill="url(#SVGID_10_)"/></g><path d="m288.499 264.209-.252.247-25.749 25.749 20.939 20.939 26.001-25.997c13.385-13.39 20.804-30.531 22.25-48.069.002-.024.004-.048.006-.072.384-4.778-.441-9.586-2.37-13.973-3.932-8.941-9.626-17.313-17.082-24.604-.801-.783-1.619-1.541-2.445-2.285 4.279 23.966-2.817 49.584-21.298 68.065z" fill="url(#SVGID_11_)"/><path d="m283.822 311.529 7.247 7.248h.001z" fill="url(#SVGID_12_)"/></g></g><path d="m331.413 372.693c4.649-1.662 5.906-7.667 2.415-11.159l-18.03-18.03-28.438 28.438 17.748 17.748c3.455 3.455 9.399 2.309 11.164-2.247 1.24-3.2 3.151-6.2 5.733-8.783 2.75-2.751 5.973-4.739 9.408-5.967z" fill="url(#SVGID_13_)"/><path d="m255 190.464c-38.495-.003-76.886 44.151-76.693 46.543.002.024.004.048.006.072 1.365 16.547 8.048 32.739 20.041 45.763h113.293c11.993-13.023 18.677-29.216 20.041-45.763.002-.024.004-.048.006-.072.191-2.386-38.303-46.54-76.694-46.543zm25.996 66.243-25.996 26.001-25.996-26.001c-6.947-6.942-10.773-16.175-10.773-25.996 0-3.611.518-7.143 1.521-10.507 1.712-5.795 4.861-11.099 9.252-15.49 6.942-6.947 16.175-10.773 25.996-10.773s19.054 3.826 25.996 10.773c4.39 4.39 7.54 9.695 9.252 15.49 1.003 3.364 1.521 6.896 1.521 10.507 0 9.82-3.825 19.053-10.773 25.996z" fill="url(#SVGID_14_)"/><path d="m312.242 198.429c-31.562-30.849-82.921-30.849-114.483 0-2.721 2.661-6.046 6.467-9.172 10.229-6.635 7.983-10.277 18.035-10.274 28.416v.005c.919 11.118 4.232 22.077 9.952 32.02-9.83-17.192-1.204-39.191 17.678-45.242 4.395-1.409 9.009-2.631 13.81-3.653 10.931-2.333 22.819-3.611 35.248-3.611s24.317 1.278 35.248 3.611c4.801 1.022 9.415 2.244 13.81 3.653 18.882 6.051 27.508 28.049 17.678 45.242 5.72-9.942 9.033-20.902 9.952-32.02 0 0 0-.002 0-.005.003-10.381-3.638-20.432-10.274-28.416-3.127-3.761-6.453-7.568-9.173-10.229z" fill="url(#SVGID_15_)"/></g><g><g fill="#fe860a"><path d="m145.634 362.844c0 4.142-3.358 7.5-7.5 7.5h-97.77c-4.142 0-7.5-3.358-7.5-7.5 0-4.142 3.358-7.5 7.5-7.5h97.77c4.143 0 7.5 3.358 7.5 7.5z"/><path d="m145.634 395.511c0 4.142-3.358 7.5-7.5 7.5h-97.77c-4.142 0-7.5-3.358-7.5-7.5 0-4.142 3.358-7.5 7.5-7.5h97.77c4.143 0 7.5 3.358 7.5 7.5z"/><path d="m95.136 428.178c0 4.142-3.358 7.5-7.5 7.5h-47.272c-4.142 0-7.5-3.358-7.5-7.5 0-4.142 3.358-7.5 7.5-7.5h47.271c4.143 0 7.501 3.358 7.501 7.5z"/><path d="m477.136 148.178c0 4.142-3.358 7.5-7.5 7.5h-47.271c-4.142 0-7.5-3.358-7.5-7.5 0-4.142 3.358-7.5 7.5-7.5h47.271c4.142 0 7.5 3.358 7.5 7.5z"/></g></g></g></svg>