<svg id="Layer_1" enable-background="new 0 0 64.001 64.001" height="512" viewBox="0 0 64.001 64.001" width="512" xmlns="http://www.w3.org/2000/svg" xmlns:xlink="http://www.w3.org/1999/xlink"><linearGradient id="SVGID_1_" gradientUnits="userSpaceOnUse" x1="5.466" x2="53.708" y1="58.534" y2="10.293"><stop offset="0" stop-color="#b3d8f4"/><stop offset="1" stop-color="#d1e7f8"/></linearGradient><linearGradient id="lg1"><stop offset="0" stop-color="#00969b"/><stop offset="1" stop-color="#00d7df"/></linearGradient><linearGradient id="SVGID_2_" gradientUnits="userSpaceOnUse" x1="42.467" x2="49.708" xlink:href="#lg1" y1="13.535" y2="6.293"/><linearGradient id="SVGID_3_" gradientUnits="userSpaceOnUse" x1="25.586" x2="38.414" xlink:href="#lg1" y1="38.415" y2="25.586"/><linearGradient id="lg2"><stop offset="0" stop-color="#005ece"/><stop offset="1" stop-color="#2488ff"/></linearGradient><linearGradient id="SVGID_4_" gradientUnits="userSpaceOnUse" x1="20.586" x2="27.414" xlink:href="#lg2" y1="35.415" y2="28.587"/><linearGradient id="SVGID_5_" gradientUnits="userSpaceOnUse" x1="36.586" x2="43.414" xlink:href="#lg2" y1="35.415" y2="28.587"/><g><g><path d="m55.994 13.887c-.018-.152-.196-1.503-1.115-2.422l-10.343-10.343c-.919-.919-2.271-1.098-2.422-1.115-.038-.004-.076-.006-.114-.006h-29c-2.757 0-5 2.243-5 5v54c0 2.757 2.243 5 5 5h38c2.757 0 5-2.243 5-5v-45c0-.039-.002-.077-.006-.114z" fill="url(#SVGID_1_)"/><path d="m54.879 11.465-10.343-10.343c-.919-.919-2.271-1.098-2.422-1.115-.287-.032-.567.058-.779.248-.213.189-.335.46-.335.746v9c0 2.757 2.243 5 5 5h9c.285 0 .557-.121.746-.334.19-.213.28-.496.248-.779-.018-.153-.196-1.504-1.115-2.423z" fill="url(#SVGID_2_)"/></g><g><g><g><path d="m31.003 43.001c-.074 0-.148-.004-.223-.013-1.098-.121-1.889-1.11-1.767-2.208l2-18c.122-1.098 1.116-1.898 2.209-1.767 1.098.121 1.889 1.11 1.767 2.208l-2 18c-.115 1.023-.98 1.78-1.986 1.78z" fill="url(#SVGID_3_)"/></g><g><path d="m24 38.001c-.512 0-1.024-.195-1.414-.586l-4-4c-.781-.781-.781-2.047 0-2.828l4-4c.78-.781 2.048-.781 2.828 0 .781.781.781 2.047 0 2.828l-2.586 2.586 2.586 2.586c.781.781.781 2.047 0 2.828-.39.39-.902.586-1.414.586z" fill="url(#SVGID_4_)"/></g><g><path d="m40 38.001c-.512 0-1.024-.195-1.414-.586-.781-.781-.781-2.047 0-2.828l2.585-2.586-2.585-2.586c-.781-.781-.781-2.047 0-2.828.78-.781 2.048-.781 2.828 0l4 4c.781.781.781 2.047 0 2.828l-4 4c-.39.39-.902.586-1.414.586z" fill="url(#SVGID_5_)"/></g></g></g></g></svg>