<svg id="Capa_1" enable-background="new 0 0 510 510" height="512" viewBox="0 0 510 510" width="512" xmlns="http://www.w3.org/2000/svg" xmlns:xlink="http://www.w3.org/1999/xlink"><linearGradient id="lg1"><stop offset="0" stop-color="#fee45a"/><stop offset="1" stop-color="#fea613"/></linearGradient><linearGradient id="SVGID_1_" gradientUnits="userSpaceOnUse" x1="38.204" x2="323.319" xlink:href="#lg1" y1="77.845" y2="362.96"/><linearGradient id="lg2"><stop offset="0" stop-color="#fea613" stop-opacity="0"/><stop offset="1" stop-color="#e94444"/></linearGradient><linearGradient id="SVGID_00000042736624336080525970000012372641185863725739_" gradientUnits="userSpaceOnUse" x1="212.769" x2="212.769" xlink:href="#lg2" y1="270.236" y2="457.148"/><linearGradient id="SVGID_00000105412782236235051700000000849973818935733383_" gradientUnits="userSpaceOnUse" x1="384.537" x2="438.87" xlink:href="#lg2" y1="254.793" y2="254.793"/><linearGradient id="SVGID_00000052820305570707539810000017818113757497717389_" gradientUnits="userSpaceOnUse" x1="203.453" x2="336.904" xlink:href="#lg1" y1="102.443" y2="464.428"/><linearGradient id="SVGID_00000176738653697690405790000000379075004608325307_" gradientUnits="userSpaceOnUse" x1="444" x2="348.629" xlink:href="#lg1" y1="285.551" y2="285.551"/><linearGradient id="lg3"><stop offset="0" stop-color="#e1d3ce"/><stop offset="1" stop-color="#9e9797"/></linearGradient><linearGradient id="SVGID_00000001640687015488846330000007175556328004568254_" gradientUnits="userSpaceOnUse" x1="364.228" x2="372.496" xlink:href="#lg3" y1="118.096" y2="139.8"/><linearGradient id="SVGID_00000022525341978658479370000014148449712697397916_" gradientUnits="userSpaceOnUse" x1="352.514" x2="360.783" xlink:href="#lg3" y1="137.494" y2="159.198"/><linearGradient id="SVGID_00000067949579865730804550000001096314499759819677_" gradientUnits="userSpaceOnUse" x1="364.228" x2="372.496" xlink:href="#lg3" y1="157.369" y2="179.073"/><linearGradient id="SVGID_00000174563361215121105280000006630584262408252312_" gradientUnits="userSpaceOnUse" x1="352.514" x2="360.783" xlink:href="#lg3" y1="176.768" y2="198.472"/><linearGradient id="SVGID_00000168106485175160615640000013999505698783004039_" gradientUnits="userSpaceOnUse" x1="364.228" x2="372.496" xlink:href="#lg3" y1="196.643" y2="218.347"/><linearGradient id="SVGID_00000092425074648918508780000017751851491502162830_" gradientUnits="userSpaceOnUse" x1="352.514" x2="360.783" xlink:href="#lg3" y1="216.042" y2="237.746"/><linearGradient id="SVGID_00000083073314735764796440000001403357011298406814_" gradientUnits="userSpaceOnUse" x1="364.228" x2="372.496" xlink:href="#lg3" y1="235.917" y2="257.621"/><linearGradient id="SVGID_00000083078896585185776150000013439101771814474172_" gradientUnits="userSpaceOnUse" x1="352.514" x2="360.783" xlink:href="#lg3" y1="255.316" y2="277.02"/><linearGradient id="SVGID_00000142144621543843397690000003791083664436380566_" gradientUnits="userSpaceOnUse" x1="364.228" x2="372.496" xlink:href="#lg3" y1="275.191" y2="296.895"/><linearGradient id="SVGID_00000013910465542149622530000001702970574278241209_" gradientUnits="userSpaceOnUse" x1="352.514" x2="360.783" xlink:href="#lg3" y1="294.59" y2="316.294"/><linearGradient id="SVGID_00000005965021584823988950000012376259390089544618_" gradientUnits="userSpaceOnUse" x1="364.228" x2="372.496" xlink:href="#lg3" y1="314.465" y2="336.169"/><linearGradient id="SVGID_00000093141754760718596670000007386711380882927510_" gradientUnits="userSpaceOnUse" x1="352.514" x2="360.783" xlink:href="#lg3" y1="333.864" y2="355.568"/><linearGradient id="SVGID_00000139282072548301281700000013405298498098497441_" gradientUnits="userSpaceOnUse" x1="364.228" x2="372.496" xlink:href="#lg3" y1="353.739" y2="375.443"/><linearGradient id="SVGID_00000093140091450959472730000014376105425241588406_" gradientUnits="userSpaceOnUse" x1="352.514" x2="360.783" xlink:href="#lg3" y1="373.138" y2="394.842"/><linearGradient id="SVGID_00000147941239356133589760000008470718428987368633_" gradientUnits="userSpaceOnUse" x1="364.228" x2="372.496" xlink:href="#lg3" y1="393.013" y2="414.717"/><linearGradient id="SVGID_00000079460213138537150820000012073109316454900413_" gradientUnits="userSpaceOnUse" x1="352.514" x2="360.783" xlink:href="#lg3" y1="412.412" y2="434.116"/><linearGradient id="SVGID_00000008148626101574934050000007384066726679771579_" gradientUnits="userSpaceOnUse" x1="364.228" x2="372.496" xlink:href="#lg3" y1="432.287" y2="453.991"/><linearGradient id="SVGID_00000037657127261829729000000010060854787251721900_" gradientUnits="userSpaceOnUse" x1="276.116" x2="276.116" xlink:href="#lg2" y1="374.876" y2="471.401"/><linearGradient id="SVGID_00000022519616753016545420000007593303184376998331_" gradientUnits="userSpaceOnUse" x1="469" x2="523.332" xlink:href="#lg2" y1="285.551" y2="285.551"/><linearGradient id="SVGID_00000013184835781478514960000017375732779572627357_" gradientUnits="userSpaceOnUse" x1="332.684" x2="557.864" xlink:href="#lg2" y1="279.516" y2="216.676"/><linearGradient id="SVGID_00000178178909924947013590000001142837009631335600_" gradientUnits="userSpaceOnUse" x1="293.765" x2="281.099" y1="165.245" y2="37.912"><stop offset="0" stop-color="#fff" stop-opacity="0"/><stop offset="1" stop-color="#fff"/></linearGradient><linearGradient id="SVGID_00000020370806175954336780000001772855435893248935_" gradientUnits="userSpaceOnUse" x1="482" x2="379.095" xlink:href="#lg2" y1="417.921" y2="417.921"/><linearGradient id="SVGID_00000092423554192269572630000001785174731884582834_" gradientUnits="userSpaceOnUse" x1="330.414" x2="394.226" xlink:href="#lg3" y1="441.78" y2="441.78"/><linearGradient id="SVGID_00000140728438911852097950000013912023213462304395_" gradientUnits="userSpaceOnUse" x1="375" x2="344.304" xlink:href="#lg3" y1="413.5" y2="413.5"/><linearGradient id="lg4"><stop offset="0" stop-color="#433f43" stop-opacity="0"/><stop offset=".3007" stop-color="#3c393c" stop-opacity=".301"/><stop offset=".7373" stop-color="#292729" stop-opacity=".737"/><stop offset="1" stop-color="#1a1a1a"/></linearGradient><linearGradient id="SVGID_00000110466059336455407570000008508564791937075847_" gradientUnits="userSpaceOnUse" x1="380.245" x2="400.245" xlink:href="#lg4" y1="440.896" y2="439.896"/><linearGradient id="SVGID_00000115516244610044213290000014374462300821479092_" gradientUnits="userSpaceOnUse" x1="362.32" x2="362.32" xlink:href="#lg4" y1="478.667" y2="520.193"/><g><g><path d="m153.132 28.502c0-15.741-12.761-28.502-28.503-28.502h-96.127c-15.741 0-28.502 12.761-28.502 28.502v381.848c0 23.324 18.908 42.231 42.231 42.231h349.211c18.83 0 34.095-15.265 34.095-34.095v-327.386c0-18.83-15.265-34.095-34.095-34.095h-209.808c-15.742 0-28.502-12.761-28.502-28.503z" fill="url(#SVGID_1_)"/><path d="m425.537 418.487v-232.198h-425.537v224.061c0 23.324 18.908 42.231 42.231 42.231h349.211c18.831.001 34.095-15.264 34.095-34.094z" fill="url(#SVGID_00000042736624336080525970000012372641185863725739_)"/><path d="m391.443 57.005h-50.365v395.577h50.365c18.83 0 34.095-15.265 34.095-34.095v-327.387c-.001-18.83-15.265-34.095-34.095-34.095z" fill="url(#SVGID_00000105412782236235051700000000849973818935733383_)"/><path d="m510 418.487c0 18.83-15.265 34.095-34.095 34.095h-433.674c23.324 0 42.231-18.908 42.231-42.231v-257.742c0-18.83 15.265-34.095 34.095-34.095h357.348c18.83 0 34.095 15.265 34.095 34.095z" fill="url(#SVGID_00000052820305570707539810000017818113757497717389_)"/><g fill="#fff"><path d="m135.786 152.801h-10.897c-5.31 0-9.615 4.305-9.615 9.615s4.305 9.615 9.615 9.615h10.897c5.31 0 9.615-4.305 9.615-9.615s-4.305-9.615-9.615-9.615z"/><path d="m275.158 152.801h-105.657c-5.311 0-9.615 4.305-9.615 9.615s4.305 9.615 9.615 9.615h105.657c5.31 0 9.615-4.305 9.615-9.615s-4.305-9.615-9.615-9.615z"/><path d="m236.57 197.189c0-5.31-4.305-9.615-9.615-9.615h-57.454c-5.311 0-9.615 4.305-9.615 9.615 0 5.311 4.305 9.615 9.615 9.615h57.454c5.31 0 9.615-4.304 9.615-9.615z"/><path d="m274.984 206.804c5.311 0 9.615-4.305 9.615-9.615 0-5.311-4.305-9.615-9.615-9.615h-18.666c-5.31 0-9.615 4.305-9.615 9.615s4.305 9.615 9.615 9.615z"/></g><g><path d="m337.135 118.518h50.365v334.066h-50.365z" fill="url(#SVGID_00000176738653697690405790000000379075004608325307_)"/><g><g><path d="m377.82 138.393c5.489 0 9.937-4.449 9.937-9.937 0-5.489-4.449-9.938-9.937-9.938h-19.292c-5.488 0-9.937 4.449-9.937 9.938 0 5.488 4.449 9.937 9.937 9.937z" fill="url(#SVGID_00000001640687015488846330000007175556328004568254_)"/></g><g><path d="m366.107 157.792c5.489 0 9.937-4.449 9.937-9.937 0-5.489-4.449-9.938-9.937-9.938h-19.292c-5.488 0-9.937 4.449-9.937 9.938 0 5.488 4.449 9.937 9.937 9.937z" fill="url(#SVGID_00000022525341978658479370000014148449712697397916_)"/><path d="m377.82 177.667c5.489 0 9.937-4.449 9.937-9.937 0-5.489-4.449-9.938-9.937-9.938h-19.292c-5.488 0-9.937 4.449-9.937 9.938 0 5.488 4.449 9.937 9.937 9.937z" fill="url(#SVGID_00000067949579865730804550000001096314499759819677_)"/></g><g><path d="m366.107 197.066c5.489 0 9.937-4.449 9.937-9.937 0-5.489-4.449-9.938-9.937-9.938h-19.292c-5.488 0-9.937 4.449-9.937 9.938 0 5.488 4.449 9.937 9.937 9.937z" fill="url(#SVGID_00000174563361215121105280000006630584262408252312_)"/><path d="m377.82 216.941c5.489 0 9.937-4.449 9.937-9.937 0-5.489-4.449-9.938-9.937-9.938h-19.292c-5.488 0-9.937 4.449-9.937 9.938 0 5.488 4.449 9.937 9.937 9.937z" fill="url(#SVGID_00000168106485175160615640000013999505698783004039_)"/></g><g><path d="m366.107 236.339c5.489 0 9.937-4.449 9.937-9.937 0-5.489-4.449-9.938-9.937-9.938h-19.292c-5.488 0-9.937 4.449-9.937 9.938 0 5.488 4.449 9.937 9.937 9.937z" fill="url(#SVGID_00000092425074648918508780000017751851491502162830_)"/><path d="m377.82 256.214c5.489 0 9.937-4.449 9.937-9.937 0-5.489-4.449-9.938-9.937-9.938h-19.292c-5.488 0-9.937 4.449-9.937 9.938 0 5.488 4.449 9.937 9.937 9.937z" fill="url(#SVGID_00000083073314735764796440000001403357011298406814_)"/></g><g><path d="m366.107 275.613c5.489 0 9.937-4.449 9.937-9.937 0-5.489-4.449-9.938-9.937-9.938h-19.292c-5.488 0-9.937 4.449-9.937 9.938 0 5.488 4.449 9.937 9.937 9.937z" fill="url(#SVGID_00000083078896585185776150000013439101771814474172_)"/><path d="m377.82 295.488c5.489 0 9.937-4.449 9.937-9.937 0-5.489-4.449-9.938-9.937-9.938h-19.292c-5.488 0-9.937 4.449-9.937 9.938 0 5.488 4.449 9.937 9.937 9.937z" fill="url(#SVGID_00000142144621543843397690000003791083664436380566_)"/></g><g><path d="m366.107 314.887c5.489 0 9.937-4.449 9.937-9.937 0-5.489-4.449-9.938-9.937-9.938h-19.292c-5.488 0-9.937 4.449-9.937 9.938 0 5.488 4.449 9.937 9.937 9.937z" fill="url(#SVGID_00000013910465542149622530000001702970574278241209_)"/><path d="m377.82 334.762c5.489 0 9.937-4.449 9.937-9.937 0-5.489-4.449-9.938-9.937-9.938h-19.292c-5.488 0-9.937 4.449-9.937 9.938 0 5.488 4.449 9.937 9.937 9.937z" fill="url(#SVGID_00000005965021584823988950000012376259390089544618_)"/></g><g><path d="m366.107 354.161c5.489 0 9.937-4.449 9.937-9.937 0-5.489-4.449-9.938-9.937-9.938h-19.292c-5.488 0-9.937 4.449-9.937 9.938 0 5.488 4.449 9.937 9.937 9.937z" fill="url(#SVGID_00000093141754760718596670000007386711380882927510_)"/><path d="m377.82 374.036c5.489 0 9.937-4.449 9.937-9.937 0-5.489-4.449-9.938-9.937-9.938h-19.292c-5.488 0-9.937 4.449-9.937 9.938 0 5.488 4.449 9.937 9.937 9.937z" fill="url(#SVGID_00000139282072548301281700000013405298498098497441_)"/></g><g><path d="m366.107 393.435c5.489 0 9.937-4.449 9.937-9.937 0-5.489-4.449-9.938-9.937-9.938h-19.292c-5.488 0-9.937 4.449-9.937 9.938 0 5.488 4.449 9.937 9.937 9.937z" fill="url(#SVGID_00000093140091450959472730000014376105425241588406_)"/><path d="m377.82 413.31c5.489 0 9.937-4.449 9.937-9.937 0-5.489-4.449-9.938-9.937-9.938h-19.292c-5.488 0-9.937 4.449-9.937 9.938 0 5.488 4.449 9.937 9.937 9.937z" fill="url(#SVGID_00000147941239356133589760000008470718428987368633_)"/></g><g><path d="m366.107 432.709c5.489 0 9.937-4.449 9.937-9.937 0-5.489-4.449-9.938-9.937-9.938h-19.292c-5.488 0-9.937 4.449-9.937 9.938 0 5.488 4.449 9.937 9.937 9.937z" fill="url(#SVGID_00000079460213138537150820000012073109316454900413_)"/><path d="m377.82 452.584c5.489 0 9.937-4.449 9.937-9.937 0-5.489-4.449-9.938-9.937-9.938h-19.292c-5.488 0-9.937 4.449-9.937 9.938 0 5.488 4.449 9.937 9.937 9.937z" fill="url(#SVGID_00000008148626101574934050000007384066726679771579_)"/></g></g></g><path d="m84.463 249.286v161.064c0 23.324-18.908 42.231-42.231 42.231h433.674c18.83 0 34.095-15.265 34.095-34.095v-169.2z" fill="url(#SVGID_00000037657127261829729000000010060854787251721900_)"/><path d="m510 152.608v265.876c0 18.83-15.26 34.1-34.09 34.1h-50.37v-334.066h50.37c18.83 0 34.09 15.26 34.09 34.09z" fill="url(#SVGID_00000022519616753016545420000007593303184376998331_)"/><path d="m425.537 418.487v-299.973h-199.537v334.068h165.443c18.83 0 34.094-15.265 34.094-34.095z" fill="url(#SVGID_00000013184835781478514960000017375732779572627357_)"/><path d="m475.905 118.514h-357.348c-18.83 0-34.095 15.265-34.095 34.095v96.677h425.538v-96.677c0-18.83-15.265-34.095-34.095-34.095z" fill="url(#SVGID_00000178178909924947013590000001142837009631335600_)"/></g><path d="m388.25 383.26v69.322h69.322z" fill="url(#SVGID_00000020370806175954336780000001772855435893248935_)"/><g><g><path d="m394.16 476.07-5.91-92.81c-.34-5.45-4.87-9.7-10.34-9.7h-31.19c-5.46 0-9.99 4.25-10.34 9.7l-5.9 92.81c-1.17 18.38 13.42 33.93 31.84 33.93s33.01-15.55 31.84-33.93zm-31.84 13.93c-8.84 0-16-7.16-16-16s7.16-16 16-16c8.83 0 16 7.16 16 16s-7.17 16-16 16z" fill="url(#SVGID_00000092423554192269572630000001785174731884582834_)"/><path d="m369.601 440.5h-14.568c-3.019 0-5.466-2.447-5.466-5.466v-43.068c0-3.019 2.447-5.466 5.466-5.466h14.568c3.019 0 5.466 2.447 5.466 5.466v43.068c.001 3.019-2.447 5.466-5.466 5.466z" fill="url(#SVGID_00000140728438911852097950000013912023213462304395_)"/></g><path d="m388.25 383.26c-.34-5.45-4.87-9.7-10.34-9.7h-15.91v84.456c.108-.002.212-.016.32-.016 8.83 0 16 7.16 16 16s-7.17 16-16 16c-.108 0-.212-.014-.32-.016v20.008c.107.001.213.008.32.008 18.42 0 33.01-15.55 31.84-33.93z" fill="url(#SVGID_00000110466059336455407570000008508564791937075847_)"/><path d="m330.48 476.07c-1.17 18.38 13.42 33.93 31.84 33.93s33.01-15.55 31.84-33.93l-1.496-23.488h-60.691zm31.84-18.07c8.83 0 16 7.16 16 16s-7.17 16-16 16c-8.84 0-16-7.16-16-16s7.16-16 16-16z" fill="url(#SVGID_00000115516244610044213290000014374462300821479092_)"/></g></g></svg>