<svg id="Capa_1" enable-background="new 0 0 510 510" height="512" viewBox="0 0 510 510" width="512" xmlns="http://www.w3.org/2000/svg" xmlns:xlink="http://www.w3.org/1999/xlink"><linearGradient id="SVGID_1_" gradientUnits="userSpaceOnUse" x1="199.03" x2="456.893" y1="123.18" y2="314.225"><stop offset="0" stop-color="#d5daf3"/><stop offset="1" stop-color="#60b7ff"/></linearGradient><linearGradient id="lg1"><stop offset="0" stop-color="#528fd8" stop-opacity="0"/><stop offset=".214" stop-color="#4e8dd7" stop-opacity=".214"/><stop offset=".4386" stop-color="#4187d5" stop-opacity=".439"/><stop offset=".6681" stop-color="#2c7dd0" stop-opacity=".668"/><stop offset=".8995" stop-color="#0f6fc9" stop-opacity=".9"/><stop offset="1" stop-color="#0067c5"/></linearGradient><linearGradient id="SVGID_00000006709369945177167930000011303251377202418598_" gradientUnits="userSpaceOnUse" x1="419.066" x2="487.59" xlink:href="#lg1" y1="222.348" y2="222.348"/><linearGradient id="SVGID_00000065794045704829683730000001861102309375540145_" gradientUnits="userSpaceOnUse" x1="307.525" x2="307.525" xlink:href="#lg1" y1="398.552" y2="450.241"/><linearGradient id="SVGID_00000144330592038612653080000018253910052231383691_" gradientUnits="userSpaceOnUse" x1="297.933" x2="230.871" xlink:href="#lg1" y1="404.999" y2="400.692"/><linearGradient id="lg2"><stop offset="0" stop-color="#f9f7f8"/><stop offset="1" stop-color="#e5e1e5"/></linearGradient><linearGradient id="SVGID_00000065067218614859728620000017991161516297827722_" gradientUnits="userSpaceOnUse" x1="225.501" x2="201.506" xlink:href="#lg2" y1="379.084" y2="417.229"/><linearGradient id="SVGID_00000167383073209873571120000000883155201294044853_" gradientUnits="userSpaceOnUse" x1="-5.99" x2="495.01" xlink:href="#lg1" y1="-225.091" y2="235.909"/><linearGradient id="SVGID_00000113330719590615848150000000465286447608845474_" gradientUnits="userSpaceOnUse" x1="-45.474" x2="455.526" xlink:href="#lg1" y1="-182.182" y2="278.818"/><linearGradient id="SVGID_00000013170264549028388150000010115939029877874356_" gradientUnits="userSpaceOnUse" x1="-26.179" x2="474.821" xlink:href="#lg1" y1="-203.151" y2="257.849"/><linearGradient id="SVGID_00000044144284978528511450000008795668975252984474_" gradientUnits="userSpaceOnUse" x1="-39.576" x2="461.424" xlink:href="#lg1" y1="-188.591" y2="272.409"/><linearGradient id="SVGID_00000173859522579871630100000015819940645340022435_" gradientUnits="userSpaceOnUse" x1="31.645" x2="532.645" xlink:href="#lg1" y1="-265.992" y2="195.008"/><linearGradient id="SVGID_00000143587174875070008370000002037946877445738425_" gradientUnits="userSpaceOnUse" x1="-67.669" x2="433.331" xlink:href="#lg1" y1="-158.061" y2="302.939"/><linearGradient id="SVGID_00000026121354329313565700000014971511166436220045_" gradientUnits="userSpaceOnUse" x1="-42.126" x2="458.874" xlink:href="#lg1" y1="-185.82" y2="275.181"/><linearGradient id="SVGID_00000083090940441635835600000000178656196499623596_" gradientUnits="userSpaceOnUse" x1="-81.61" x2="419.39" xlink:href="#lg1" y1="-142.91" y2="318.09"/><linearGradient id="SVGID_00000021105120305901138210000017874075299768024200_" gradientUnits="userSpaceOnUse" x1="-62.315" x2="438.685" xlink:href="#lg1" y1="-163.879" y2="297.121"/><linearGradient id="SVGID_00000016060922106053513760000008155575828383957400_" gradientUnits="userSpaceOnUse" x1="-7.874" x2="493.126" xlink:href="#lg1" y1="-223.044" y2="237.956"/><linearGradient id="SVGID_00000112618573621275328580000011756938343164213130_" gradientUnits="userSpaceOnUse" x1="-63.527" x2="437.473" xlink:href="#lg1" y1="-162.562" y2="298.438"/><linearGradient id="SVGID_00000183209731097249971880000006630935125585181828_" gradientUnits="userSpaceOnUse" x1="-103.01" x2="397.99" xlink:href="#lg1" y1="-119.652" y2="341.348"/><linearGradient id="SVGID_00000052801244482238945160000012809385707554443910_" gradientUnits="userSpaceOnUse" x1="-83.715" x2="417.285" xlink:href="#lg1" y1="-140.622" y2="320.378"/><linearGradient id="SVGID_00000112619557153905319580000018245134561902639524_" gradientUnits="userSpaceOnUse" x1="-97.113" x2="403.887" xlink:href="#lg1" y1="-126.062" y2="334.938"/><linearGradient id="SVGID_00000080190495828801959340000005708351409772013458_" gradientUnits="userSpaceOnUse" x1="-25.892" x2="475.108" xlink:href="#lg1" y1="-203.463" y2="257.537"/><linearGradient id="SVGID_00000101085532992100426840000006002494174129191305_" gradientUnits="userSpaceOnUse" x1="-36.908" x2="464.092" xlink:href="#lg1" y1="-191.491" y2="269.509"/><linearGradient id="SVGID_00000080922645404951272340000005554469982671579811_" gradientUnits="userSpaceOnUse" x1="-125.206" x2="375.794" xlink:href="#lg1" y1="-95.531" y2="365.469"/><linearGradient id="SVGID_00000083787295763993465830000000596702883986646404_" gradientUnits="userSpaceOnUse" x1="-99.663" x2="401.337" xlink:href="#lg1" y1="-123.29" y2="337.71"/><linearGradient id="SVGID_00000056410134673947231470000016279229801033985411_" gradientUnits="userSpaceOnUse" x1="-139.147" x2="361.853" xlink:href="#lg1" y1="-80.381" y2="380.619"/><linearGradient id="SVGID_00000048480902785358678860000012109827527118491826_" gradientUnits="userSpaceOnUse" x1="-119.852" x2="381.148" xlink:href="#lg1" y1="-101.35" y2="359.65"/><linearGradient id="SVGID_00000120535517517252672570000013377825611089083534_" gradientUnits="userSpaceOnUse" x1="-65.411" x2="435.589" xlink:href="#lg1" y1="-160.515" y2="300.485"/><linearGradient id="SVGID_00000097458196549524588040000018338935431255038380_" gradientUnits="userSpaceOnUse" x1="-121.064" x2="379.936" xlink:href="#lg1" y1="-100.033" y2="360.967"/><linearGradient id="SVGID_00000018947606442729326050000001346723028629141665_" gradientUnits="userSpaceOnUse" x1="-160.547" x2="340.453" xlink:href="#lg1" y1="-57.123" y2="403.877"/><linearGradient id="SVGID_00000147180535905767341310000000250916179333172618_" gradientUnits="userSpaceOnUse" x1="-141.252" x2="359.748" xlink:href="#lg1" y1="-78.092" y2="382.908"/><linearGradient id="SVGID_00000011742531320112032040000013732400286294512808_" gradientUnits="userSpaceOnUse" x1="-83.429" x2="417.572" xlink:href="#lg1" y1="-140.933" y2="320.067"/><linearGradient id="SVGID_00000142154197827582172090000011559196536014048925_" gradientUnits="userSpaceOnUse" x1="449.23" x2="351.23" xlink:href="#lg1" y1="258.352" y2="258.352"/><linearGradient id="SVGID_00000146492125324769075360000009196483643680719780_" gradientUnits="userSpaceOnUse" x1="93.979" x2="351.842" xlink:href="#lg2" y1="188.484" y2="379.529"/><linearGradient id="lg3"><stop offset="0" stop-color="#9b8e99" stop-opacity="0"/><stop offset=".3465" stop-color="#978a95" stop-opacity=".347"/><stop offset=".7135" stop-color="#8a7f88" stop-opacity=".714"/><stop offset="1" stop-color="#7b7179"/></linearGradient><linearGradient id="SVGID_00000052795568181300434930000001090637538106855298_" gradientUnits="userSpaceOnUse" x1="314.015" x2="382.539" xlink:href="#lg3" y1="287.652" y2="287.652"/><linearGradient id="SVGID_00000103972934972005365290000007574865716683338915_" gradientUnits="userSpaceOnUse" x1="202.475" x2="202.475" xlink:href="#lg3" y1="463.856" y2="515.545"/><linearGradient id="SVGID_00000014622377817794814550000008079414522677660074_" gradientUnits="userSpaceOnUse" x1="192.883" x2="125.821" xlink:href="#lg3" y1="470.303" y2="465.996"/><linearGradient id="SVGID_00000022521344479979307460000015525038401565794435_" gradientUnits="userSpaceOnUse" x1="120.45" x2="96.455" xlink:href="#lg2" y1="444.388" y2="482.533"/><g><g><g><g><path d="m449.667 444.696h-208.57c-51.988 0-94.133-42.145-94.133-94.133v-332.143c0-10.173 8.247-18.42 18.42-18.42h284.283c10.173 0 18.42 8.247 18.42 18.42v407.856c0 10.173-8.247 18.42-18.42 18.42z" fill="url(#SVGID_1_)"/><path d="m449.667 0h-163.424v444.696h163.424c10.173 0 18.42-8.247 18.42-18.42v-407.856c0-10.173-8.247-18.42-18.42-18.42z" fill="url(#SVGID_00000006709369945177167930000011303251377202418598_)"/><path d="m146.964 275.503v75.06c0 51.988 42.145 94.133 94.133 94.133h208.57c10.173 0 18.42-8.247 18.42-18.42v-150.773z" fill="url(#SVGID_00000065794045704829683730000001861102309375540145_)"/><path d="m236.578 357.532v87.054c1.498.071 3.003.11 4.518.11h82.646z" fill="url(#SVGID_00000144330592038612653080000018253910052231383691_)"/><path d="m241.097 405.087c0 21.875 17.733 39.609 39.609 39.609h-39.609c-51.988 0-94.133-42.145-94.133-94.133h74.715c10.724 0 19.418 8.694 19.418 19.418z" fill="url(#SVGID_00000065067218614859728620000017991161516297827722_)"/></g></g><g><path d="m279.453 63.1h40.988c3.689 0 6.68-2.991 6.68-6.68s-2.991-6.68-6.68-6.68h-40.988c-3.689 0-6.68 2.991-6.68 6.68s2.991 6.68 6.68 6.68z" fill="url(#SVGID_00000167383073209873571120000000883155201294044853_)"/><path d="m198.689 63.1h30.282c3.689 0 6.68-2.991 6.68-6.68s-2.991-6.68-6.68-6.68h-30.282c-3.689 0-6.68 2.991-6.68 6.68s2.991 6.68 6.68 6.68z" fill="url(#SVGID_00000113330719590615848150000000465286447608845474_)"/><path d="m252.129 63.1h7.571c3.689 0 6.68-2.991 6.68-6.68s-2.991-6.68-6.68-6.68h-7.571c-3.689 0-6.68 2.991-6.68 6.68s2.991 6.68 6.68 6.68z" fill="url(#SVGID_00000013170264549028388150000010115939029877874356_)"/><path d="m298.077 83.834h-68.66c-3.689 0-6.68 2.991-6.68 6.68 0 3.69 2.991 6.68 6.68 6.68h68.66c3.689 0 6.68-2.99 6.68-6.68 0-3.689-2.991-6.68-6.68-6.68z" fill="url(#SVGID_00000044144284978528511450000008795668975252984474_)"/><path d="m347.702 63.1h68.66c3.689 0 6.68-2.99 6.68-6.68 0-3.689-2.991-6.68-6.68-6.68h-68.66c-3.689 0-6.68 2.991-6.68 6.68s2.991 6.68 6.68 6.68z" fill="url(#SVGID_00000173859522579871630100000015819940645340022435_)"/><path d="m198.689 97.194h7.571c3.689 0 6.68-2.99 6.68-6.68 0-3.689-2.991-6.68-6.68-6.68h-7.571c-3.689 0-6.68 2.991-6.68 6.68 0 3.69 2.991 6.68 6.68 6.68z" fill="url(#SVGID_00000143587174875070008370000002037946877445738425_)"/><path d="m320.441 122.262h-40.988c-3.689 0-6.68 2.991-6.68 6.68s2.991 6.68 6.68 6.68h40.988c3.689 0 6.68-2.991 6.68-6.68s-2.991-6.68-6.68-6.68z" fill="url(#SVGID_00000026121354329313565700000014971511166436220045_)"/><path d="m198.689 135.622h30.282c3.689 0 6.68-2.991 6.68-6.68s-2.991-6.68-6.68-6.68h-30.282c-3.689 0-6.68 2.991-6.68 6.68 0 3.69 2.991 6.68 6.68 6.68z" fill="url(#SVGID_00000083090940441635835600000000178656196499623596_)"/><path d="m252.129 122.262c-3.689 0-6.68 2.991-6.68 6.68s2.991 6.68 6.68 6.68h7.571c3.689 0 6.68-2.991 6.68-6.68s-2.991-6.68-6.68-6.68z" fill="url(#SVGID_00000021105120305901138210000017874075299768024200_)"/><path d="m322.426 90.514c0 3.69 2.991 6.68 6.68 6.68h7.571c3.689 0 6.68-2.99 6.68-6.68 0-3.689-2.991-6.68-6.68-6.68h-7.571c-3.689 0-6.68 2.991-6.68 6.68z" fill="url(#SVGID_00000016060922106053513760000008155575828383957400_)"/><path d="m320.441 165.212h-40.988c-3.689 0-6.68 2.991-6.68 6.68s2.991 6.68 6.68 6.68h40.988c3.689 0 6.68-2.991 6.68-6.68s-2.991-6.68-6.68-6.68z" fill="url(#SVGID_00000112618573621275328580000011756938343164213130_)"/><path d="m198.689 178.572h30.282c3.689 0 6.68-2.991 6.68-6.68s-2.991-6.68-6.68-6.68h-30.282c-3.689 0-6.68 2.991-6.68 6.68s2.991 6.68 6.68 6.68z" fill="url(#SVGID_00000183209731097249971880000006630935125585181828_)"/><path d="m252.129 178.572h7.571c3.689 0 6.68-2.991 6.68-6.68s-2.991-6.68-6.68-6.68h-7.571c-3.689 0-6.68 2.991-6.68 6.68s2.991 6.68 6.68 6.68z" fill="url(#SVGID_00000052801244482238945160000012809385707554443910_)"/><path d="m222.737 205.987c0 3.689 2.991 6.68 6.68 6.68h68.66c3.689 0 6.68-2.99 6.68-6.68 0-3.689-2.991-6.68-6.68-6.68h-68.66c-3.689 0-6.68 2.991-6.68 6.68z" fill="url(#SVGID_00000112619557153905319580000018245134561902639524_)"/><path d="m416.362 165.212h-68.66c-3.689 0-6.68 2.991-6.68 6.68s2.991 6.68 6.68 6.68h68.66c3.689 0 6.68-2.99 6.68-6.68-.001-3.689-2.991-6.68-6.68-6.68z" fill="url(#SVGID_00000080190495828801959340000005708351409772013458_)"/><path d="m416.362 199.307h-42.607c-3.689 0-6.68 2.991-6.68 6.68s2.991 6.68 6.68 6.68h42.607c3.689 0 6.68-2.99 6.68-6.68-.001-3.689-2.991-6.68-6.68-6.68z" fill="url(#SVGID_00000101085532992100426840000006002494174129191305_)"/><path d="m198.689 212.667h7.571c3.689 0 6.68-2.99 6.68-6.68 0-3.689-2.991-6.68-6.68-6.68h-7.571c-3.689 0-6.68 2.991-6.68 6.68s2.991 6.68 6.68 6.68z" fill="url(#SVGID_00000080922645404951272340000005554469982671579811_)"/><path d="m320.441 237.735h-40.988c-3.689 0-6.68 2.99-6.68 6.68s2.991 6.68 6.68 6.68h40.988c3.689 0 6.68-2.991 6.68-6.68s-2.991-6.68-6.68-6.68z" fill="url(#SVGID_00000083787295763993465830000000596702883986646404_)"/><path d="m198.689 251.095h30.282c3.689 0 6.68-2.991 6.68-6.68s-2.991-6.68-6.68-6.68h-30.282c-3.689 0-6.68 2.99-6.68 6.68s2.991 6.68 6.68 6.68z" fill="url(#SVGID_00000056410134673947231470000016279229801033985411_)"/><path d="m252.129 237.735c-3.689 0-6.68 2.99-6.68 6.68s2.991 6.68 6.68 6.68h7.571c3.689 0 6.68-2.991 6.68-6.68s-2.991-6.68-6.68-6.68z" fill="url(#SVGID_00000048480902785358678860000012109827527118491826_)"/><path d="m336.677 212.667c3.689 0 6.68-2.99 6.68-6.68 0-3.689-2.991-6.68-6.68-6.68h-7.571c-3.689 0-6.68 2.991-6.68 6.68s2.991 6.68 6.68 6.68z" fill="url(#SVGID_00000120535517517252672570000013377825611089083534_)"/><path d="m327.121 287.364c0-3.689-2.991-6.68-6.68-6.68h-40.988c-3.689 0-6.68 2.991-6.68 6.68s2.991 6.68 6.68 6.68h40.988c3.689 0 6.68-2.991 6.68-6.68z" fill="url(#SVGID_00000097458196549524588040000018338935431255038380_)"/><path d="m198.689 294.044h30.282c3.689 0 6.68-2.991 6.68-6.68s-2.991-6.68-6.68-6.68h-30.282c-3.689 0-6.68 2.991-6.68 6.68s2.991 6.68 6.68 6.68z" fill="url(#SVGID_00000018947606442729326050000001346723028629141665_)"/><path d="m252.129 294.044h7.571c3.689 0 6.68-2.991 6.68-6.68s-2.991-6.68-6.68-6.68h-7.571c-3.689 0-6.68 2.991-6.68 6.68s2.991 6.68 6.68 6.68z" fill="url(#SVGID_00000147180535905767341310000000250916179333172618_)"/><path d="m416.362 280.684h-68.66c-3.689 0-6.68 2.991-6.68 6.68 0 3.69 2.991 6.68 6.68 6.68h68.66c3.689 0 6.68-2.99 6.68-6.68-.001-3.689-2.991-6.68-6.68-6.68z" fill="url(#SVGID_00000011742531320112032040000013732400286294512808_)"/></g></g><path d="m358.83 72.007v372.688h90.837c10.173 0 18.42-8.247 18.42-18.42v-245.011z" fill="url(#SVGID_00000142154197827582172090000011559196536014048925_)"/><g><g><g><path d="m344.616 510h-208.57c-51.988 0-94.133-42.145-94.133-94.133v-332.143c0-10.173 8.247-18.42 18.42-18.42h284.283c10.173 0 18.42 8.247 18.42 18.42v407.856c0 10.173-8.247 18.42-18.42 18.42z" fill="url(#SVGID_00000146492125324769075360000009196483643680719780_)"/><path d="m344.616 65.304h-163.424v444.696h163.424c10.173 0 18.42-8.247 18.42-18.42v-407.856c0-10.173-8.247-18.42-18.42-18.42z" fill="url(#SVGID_00000052795568181300434930000001090637538106855298_)"/><path d="m41.913 340.807v75.06c0 51.988 42.145 94.133 94.133 94.133h208.57c10.173 0 18.42-8.247 18.42-18.42v-150.773z" fill="url(#SVGID_00000103972934972005365290000007574865716683338915_)"/><path d="m131.528 422.836v87.054c1.498.071 3.003.11 4.518.11h82.646z" fill="url(#SVGID_00000014622377817794814550000008079414522677660074_)"/><path d="m136.046 470.391c0 21.875 17.733 39.609 39.609 39.609h-39.609c-51.988 0-94.133-42.145-94.133-94.133h74.715c10.724 0 19.418 8.694 19.418 19.418z" fill="url(#SVGID_00000022521344479979307460000015525038401565794435_)"/></g></g><g fill="#aa9ea9"><path d="m174.402 128.404h40.988c3.689 0 6.68-2.991 6.68-6.68s-2.991-6.68-6.68-6.68h-40.988c-3.689 0-6.68 2.991-6.68 6.68s2.991 6.68 6.68 6.68z"/><path d="m93.639 128.404h30.282c3.689 0 6.68-2.991 6.68-6.68s-2.991-6.68-6.68-6.68h-30.282c-3.689 0-6.68 2.991-6.68 6.68s2.99 6.68 6.68 6.68z"/><path d="m147.078 128.404h7.571c3.689 0 6.68-2.991 6.68-6.68s-2.991-6.68-6.68-6.68h-7.571c-3.689 0-6.68 2.991-6.68 6.68s2.991 6.68 6.68 6.68z"/><path d="m193.026 149.138h-68.66c-3.689 0-6.68 2.991-6.68 6.68 0 3.69 2.991 6.68 6.68 6.68h68.66c3.689 0 6.68-2.99 6.68-6.68 0-3.689-2.991-6.68-6.68-6.68z"/><path d="m242.651 128.404h68.66c3.689 0 6.68-2.99 6.68-6.68 0-3.689-2.991-6.68-6.68-6.68h-68.66c-3.689 0-6.68 2.991-6.68 6.68s2.991 6.68 6.68 6.68z"/><path d="m93.639 162.498h7.571c3.689 0 6.68-2.99 6.68-6.68 0-3.689-2.991-6.68-6.68-6.68h-7.571c-3.689 0-6.68 2.991-6.68 6.68 0 3.69 2.99 6.68 6.68 6.68z"/><path d="m215.391 187.567h-40.988c-3.689 0-6.68 2.991-6.68 6.68s2.991 6.68 6.68 6.68h40.988c3.689 0 6.68-2.991 6.68-6.68-.001-3.69-2.991-6.68-6.68-6.68z"/><path d="m93.639 200.927h30.282c3.689 0 6.68-2.991 6.68-6.68s-2.991-6.68-6.68-6.68h-30.282c-3.689 0-6.68 2.991-6.68 6.68s2.99 6.68 6.68 6.68z"/><path d="m147.078 187.567c-3.689 0-6.68 2.991-6.68 6.68s2.991 6.68 6.68 6.68h7.571c3.689 0 6.68-2.991 6.68-6.68s-2.991-6.68-6.68-6.68z"/><path d="m217.375 155.818c0 3.69 2.991 6.68 6.68 6.68h7.571c3.689 0 6.68-2.99 6.68-6.68 0-3.689-2.991-6.68-6.68-6.68h-7.571c-3.689 0-6.68 2.991-6.68 6.68z"/><path d="m215.391 230.516h-40.988c-3.689 0-6.68 2.991-6.68 6.68s2.991 6.68 6.68 6.68h40.988c3.689 0 6.68-2.991 6.68-6.68-.001-3.689-2.991-6.68-6.68-6.68z"/><path d="m93.639 243.876h30.282c3.689 0 6.68-2.991 6.68-6.68s-2.991-6.68-6.68-6.68h-30.282c-3.689 0-6.68 2.991-6.68 6.68s2.99 6.68 6.68 6.68z"/><path d="m147.078 243.876h7.571c3.689 0 6.68-2.991 6.68-6.68s-2.991-6.68-6.68-6.68h-7.571c-3.689 0-6.68 2.991-6.68 6.68s2.991 6.68 6.68 6.68z"/><path d="m117.686 271.291c0 3.689 2.991 6.68 6.68 6.68h68.66c3.689 0 6.68-2.99 6.68-6.68 0-3.689-2.991-6.68-6.68-6.68h-68.66c-3.689 0-6.68 2.991-6.68 6.68z"/><path d="m311.311 230.516h-68.66c-3.689 0-6.68 2.991-6.68 6.68s2.991 6.68 6.68 6.68h68.66c3.689 0 6.68-2.99 6.68-6.68 0-3.689-2.991-6.68-6.68-6.68z"/><path d="m311.311 264.611h-42.607c-3.689 0-6.68 2.991-6.68 6.68s2.991 6.68 6.68 6.68h42.607c3.689 0 6.68-2.99 6.68-6.68 0-3.689-2.991-6.68-6.68-6.68z"/><path d="m93.639 277.971h7.571c3.689 0 6.68-2.99 6.68-6.68 0-3.689-2.991-6.68-6.68-6.68h-7.571c-3.689 0-6.68 2.991-6.68 6.68s2.99 6.68 6.68 6.68z"/><path d="m215.391 303.039h-40.988c-3.689 0-6.68 2.99-6.68 6.68s2.991 6.68 6.68 6.68h40.988c3.689 0 6.68-2.991 6.68-6.68s-2.991-6.68-6.68-6.68z"/><path d="m93.639 316.399h30.282c3.689 0 6.68-2.991 6.68-6.68s-2.991-6.68-6.68-6.68h-30.282c-3.689 0-6.68 2.99-6.68 6.68s2.99 6.68 6.68 6.68z"/><path d="m147.078 303.039c-3.689 0-6.68 2.99-6.68 6.68s2.991 6.68 6.68 6.68h7.571c3.689 0 6.68-2.991 6.68-6.68s-2.991-6.68-6.68-6.68z"/><path d="m231.626 277.971c3.689 0 6.68-2.99 6.68-6.68 0-3.689-2.991-6.68-6.68-6.68h-7.571c-3.689 0-6.68 2.991-6.68 6.68s2.991 6.68 6.68 6.68z"/><path d="m222.07 352.668c0-3.689-2.991-6.68-6.68-6.68h-40.988c-3.689 0-6.68 2.991-6.68 6.68s2.991 6.68 6.68 6.68h40.988c3.69 0 6.68-2.99 6.68-6.68z"/><path d="m93.639 359.348h30.282c3.689 0 6.68-2.991 6.68-6.68s-2.991-6.68-6.68-6.68h-30.282c-3.689 0-6.68 2.991-6.68 6.68 0 3.69 2.99 6.68 6.68 6.68z"/><path d="m147.078 359.348h7.571c3.689 0 6.68-2.991 6.68-6.68s-2.991-6.68-6.68-6.68h-7.571c-3.689 0-6.68 2.991-6.68 6.68 0 3.69 2.991 6.68 6.68 6.68z"/><path d="m311.311 345.988h-68.66c-3.689 0-6.68 2.991-6.68 6.68 0 3.69 2.991 6.68 6.68 6.68h68.66c3.689 0 6.68-2.99 6.68-6.68 0-3.689-2.991-6.68-6.68-6.68z"/></g></g></g></svg>