<svg id="Capa_1" enable-background="new 0 0 510 510" height="512" viewBox="0 0 510 510" width="512" xmlns="http://www.w3.org/2000/svg" xmlns:xlink="http://www.w3.org/1999/xlink"><linearGradient id="SVGID_1_" gradientUnits="userSpaceOnUse" x1="217.285" x2="386.627" y1="-24.195" y2="366.595"><stop offset="0" stop-color="#e6eeff"/><stop offset="1" stop-color="#bac8fa"/></linearGradient><linearGradient id="lg1"><stop offset="0" stop-color="#a7b7f1" stop-opacity="0"/><stop offset="1" stop-color="#a7b7f1"/></linearGradient><linearGradient id="SVGID_2_" gradientUnits="userSpaceOnUse" x1="305" x2="305" xlink:href="#lg1" y1="171.5" y2="224.002"/><linearGradient id="SVGID_3_" gradientUnits="userSpaceOnUse" x1="301.597" x2="206.256" xlink:href="#lg1" y1="304.722" y2="209.381"/><linearGradient id="SVGID_4_" gradientUnits="userSpaceOnUse" x1="147.194" x2="348.743" y1="254.059" y2="455.607"><stop offset="0" stop-color="#fd0"/><stop offset="1" stop-color="#ffb000"/></linearGradient><linearGradient id="lg2"><stop offset="0" stop-color="#ff8900" stop-opacity="0"/><stop offset="1" stop-color="#ff8900"/></linearGradient><linearGradient id="SVGID_5_" gradientUnits="userSpaceOnUse" x1="255" x2="255" xlink:href="#lg2" y1="437.095" y2="499.047"/><linearGradient id="SVGID_6_" gradientUnits="userSpaceOnUse" x1="188.728" x2="188.728" xlink:href="#lg2" y1="143.333" y2="230.064"/><linearGradient id="lg3"><stop offset="0" stop-color="#406cb9"/><stop offset="1" stop-color="#224191"/></linearGradient><linearGradient id="SVGID_7_" gradientUnits="userSpaceOnUse" x1="139.291" x2="178.291" xlink:href="#lg3" y1="372.816" y2="462.816"/><linearGradient id="SVGID_8_" gradientUnits="userSpaceOnUse" x1="238.162" x2="277.162" xlink:href="#lg3" y1="329.972" y2="419.972"/><linearGradient id="SVGID_9_" gradientUnits="userSpaceOnUse" x1="330.696" x2="369.696" xlink:href="#lg3" y1="289.874" y2="379.874"/><linearGradient id="SVGID_10_" gradientUnits="userSpaceOnUse" x1="178.609" x2="219.609" xlink:href="#lg1" y1="45.611" y2="118.611"/><g><path d="m478 327h-346v-289.814c0-20.537 16.648-37.186 37.186-37.186h271.629c20.537 0 37.185 16.649 37.185 37.186z" fill="url(#SVGID_1_)"/><path d="m132 99.612h346v227.389h-346z" fill="url(#SVGID_2_)"/><path d="m239 157.25v169.75h169.75z" fill="url(#SVGID_3_)"/><path d="m249.572 185.345c0-24.303-19.702-44.005-44.005-44.005h-161.562c-24.304 0-44.005 19.702-44.005 44.004v296.433c0 15.588 12.635 28.223 28.222 28.223h453.556c15.587 0 28.222-12.635 28.222-28.222v-239.827c0-15.587-12.635-28.222-28.222-28.222h-203.822c-15.676 0-28.384-12.708-28.384-28.384z" fill="url(#SVGID_4_)"/><path d="m0 350.099v131.679c0 15.587 12.635 28.222 28.222 28.222h453.556c15.587 0 28.222-12.635 28.222-28.222v-131.679z" fill="url(#SVGID_5_)"/><path d="m249.572 185.345c0-24.303-19.702-44.005-44.005-44.005h-106.067c18.032 0 32.65 14.618 32.65 32.65v15.923c0 13.154 10.663 23.817 23.816 23.817h121.99c-15.676-.001-28.384-12.709-28.384-28.385z" fill="url(#SVGID_6_)"/><g><path d="m91.484 427.63c0-.652.217-1.522.435-2.392l40.449-132.656c2.392-7.611 12.178-11.308 22.182-11.308s19.79 3.697 22.182 11.308l40.667 132.656c.217.87.435 1.74.435 2.392 0 8.046-12.395 13.918-21.747 13.918-5.437 0-9.786-1.74-11.091-6.307l-7.394-27.184h-45.886l-7.394 27.184c-1.305 4.567-5.654 6.307-11.091 6.307-9.351 0-21.747-5.871-21.747-13.918zm78.941-45.668-15.875-58.281-15.875 58.281z" fill="url(#SVGID_7_)"/><path d="m235.667 375.438h56.542c5.219 0 10.438 6.089 10.438 13.918 0 8.264-5.219 13.701-10.438 13.701h-56.542c-6.089 0-10.221-5.437-10.221-13.701.001-7.829 4.133-13.918 10.221-13.918z" fill="url(#SVGID_8_)"/><path d="m351.143 411.973h59.151c6.524 0 10.221 7.829 10.221 14.788s-3.697 14.788-10.221 14.788h-92.642c-6.959 0-9.786-3.697-9.786-8.916 0-3.479 1.305-7.829 3.697-11.961l61.326-108.517h-50.452c-6.524 0-10.221-6.959-10.221-14.788 0-7.176 3.044-14.788 10.221-14.788h83.942c6.524 0 9.786 3.697 9.786 8.916 0 3.48-1.305 7.611-3.697 11.961z" fill="url(#SVGID_9_)"/></g><g><g fill="#a7b7f1"><path d="m444.083 83.833c0 4.142-3.358 7.5-7.5 7.5h-142.321c-4.142 0-7.5-3.358-7.5-7.5 0-4.142 3.358-7.5 7.5-7.5h142.322c4.141 0 7.499 3.358 7.499 7.5z"/><path d="m444.083 116.5c0 4.142-3.358 7.5-7.5 7.5h-142.321c-4.142 0-7.5-3.358-7.5-7.5 0-4.142 3.358-7.5 7.5-7.5h142.322c4.141 0 7.499 3.358 7.499 7.5z"/><path d="m417.583 149.167c0 4.142-3.358 7.5-7.5 7.5h-115.821c-4.142 0-7.5-3.358-7.5-7.5 0-4.142 3.358-7.5 7.5-7.5h115.822c4.141 0 7.499 3.358 7.499 7.5z"/></g><path d="m240.855 124h-63.211c-6.477 0-11.728-5.251-11.728-11.728v-24.211c0-6.477 5.251-11.728 11.728-11.728h63.211c6.477 0 11.728 5.251 11.728 11.728v24.211c0 6.477-5.25 11.728-11.728 11.728z" fill="url(#SVGID_10_)"/></g></g></svg>