<svg id="Capa_1" enable-background="new 0 0 510.001 510.001" height="512" viewBox="0 0 510.001 510.001" width="512" xmlns="http://www.w3.org/2000/svg" xmlns:xlink="http://www.w3.org/1999/xlink"><linearGradient id="lg1"><stop offset="0" stop-color="#fee45a"/><stop offset="1" stop-color="#fea613"/></linearGradient><linearGradient id="SVGID_1_" gradientUnits="userSpaceOnUse" x1="38.204" x2="323.319" xlink:href="#lg1" y1="135.264" y2="420.379"/><linearGradient id="lg2"><stop offset="0" stop-color="#fea613" stop-opacity="0"/><stop offset="1" stop-color="#e94444"/></linearGradient><linearGradient id="SVGID_00000134229094931156283160000006006614982109480879_" gradientUnits="userSpaceOnUse" x1="212.769" x2="212.769" xlink:href="#lg2" y1="327.655" y2="514.566"/><linearGradient id="SVGID_00000120527733549865565270000000522601798808748718_" gradientUnits="userSpaceOnUse" x1="384.537" x2="438.87" xlink:href="#lg2" y1="312.212" y2="312.212"/><linearGradient id="lg3"><stop offset="0" stop-color="#eaf9fa"/><stop offset="1" stop-color="#b3dafe"/></linearGradient><linearGradient id="SVGID_00000090283872110222618410000003624233726562828467_" gradientUnits="userSpaceOnUse" x1="96.501" x2="341.766" xlink:href="#lg3" y1="81.676" y2="263.304"/><linearGradient id="SVGID_00000166676836961764724340000008932097756702149252_" gradientUnits="userSpaceOnUse" x1="120" x2="345.021" y1="66.791" y2="291.812"><stop offset="0" stop-color="#b3dafe"/><stop offset="1" stop-color="#0182fc"/></linearGradient><linearGradient id="SVGID_00000075130852551181586340000005053556391602682804_" gradientUnits="userSpaceOnUse" x1="272.063" x2="324.076" xlink:href="#lg1" y1="73.72" y2="125.733"/><linearGradient id="lg4"><stop offset="0" stop-color="#bbec6c"/><stop offset="1" stop-color="#81b823"/></linearGradient><linearGradient id="SVGID_00000165927497124576524080000018009738992763967893_" gradientUnits="userSpaceOnUse" x1="92.049" x2="208.775" xlink:href="#lg4" y1="195.952" y2="312.678"/><linearGradient id="SVGID_00000096739329816161677170000001631707272038545549_" gradientUnits="userSpaceOnUse" x1="280.022" x2="377.091" xlink:href="#lg4" y1="244.979" y2="342.049"/><linearGradient id="lg5"><stop offset="0" stop-color="#0182fc" stop-opacity="0"/><stop offset="1" stop-color="#024c67"/></linearGradient><linearGradient id="SVGID_00000178201988385692375540000005580601431468824995_" gradientUnits="userSpaceOnUse" x1="255" x2="255" xlink:href="#lg5" y1="301.708" y2="396.311"/><linearGradient id="SVGID_00000056423837454769993130000014488603336334668674_" gradientUnits="userSpaceOnUse" x1="466.368" x2="427.409" xlink:href="#lg5" y1="148.14" y2="71.367"/><linearGradient id="SVGID_00000130612004027936248410000002736293176418662326_" gradientUnits="userSpaceOnUse" x1="401.131" x2="455.761" xlink:href="#lg3" y1="32.925" y2="87.555"/><linearGradient id="SVGID_00000057861866781843277760000015634911737199758266_" gradientUnits="userSpaceOnUse" x1="211.441" x2="331.045" xlink:href="#lg1" y1="177.836" y2="502.263"/><linearGradient id="SVGID_00000149341013355871860100000005475998103632182956_" gradientUnits="userSpaceOnUse" x1="430.849" x2="498.849" xlink:href="#lg2" y1="345.504" y2="363.504"/><linearGradient id="SVGID_00000049195303772673806750000005209449329930171017_" gradientUnits="userSpaceOnUse" x1="272.215" x2="356.21" y1="204.941" y2="524.425"><stop offset="0" stop-color="#eaf9fa" stop-opacity="0"/><stop offset="1" stop-color="#b3dafe"/></linearGradient><linearGradient id="SVGID_00000150071005605128799670000001008376889079785124_" gradientUnits="userSpaceOnUse" x1="246.315" x2="418.982" y1="170.556" y2="601.889"><stop offset="0" stop-color="#b3dafe" stop-opacity="0"/><stop offset="1" stop-color="#0182fc"/></linearGradient><linearGradient id="lg6"><stop offset="0" stop-color="#bbec6c" stop-opacity="0"/><stop offset="1" stop-color="#81b823"/></linearGradient><linearGradient id="SVGID_00000007395783763828241730000005225093213194859150_" gradientUnits="userSpaceOnUse" x1="163.253" x2="277.253" xlink:href="#lg6" y1="205.219" y2="454.553"/><linearGradient id="SVGID_00000073698259988273068350000011170308888165738918_" gradientUnits="userSpaceOnUse" x1="286.371" x2="393.704" xlink:href="#lg6" y1="208.05" y2="438.05"/><linearGradient id="SVGID_00000070100906594950450640000017788448460473095567_" gradientUnits="userSpaceOnUse" x1="265.31" x2="265.31" xlink:href="#lg2" y1="432.295" y2="528.819"/><linearGradient id="SVGID_00000001641907203359799050000003401919671883089295_" gradientUnits="userSpaceOnUse" x1="315.983" x2="297.983" y1="241.801" y2="140.468"><stop offset="0" stop-color="#fff" stop-opacity="0"/><stop offset="1" stop-color="#fff"/></linearGradient><g><g><path d="m153.132 85.921c0-15.741-12.761-28.502-28.502-28.502h-96.128c-15.741 0-28.502 12.76-28.502 28.502v381.848c0 23.324 18.908 42.231 42.231 42.231h349.211c18.83 0 34.095-15.265 34.095-34.095v-327.387c0-18.83-15.265-34.095-34.095-34.095h-209.808c-15.742 0-28.502-12.761-28.502-28.502z" fill="url(#SVGID_1_)"/><path d="m425.537 475.906v-232.199h-425.537v224.061c0 23.325 18.908 42.232 42.231 42.232h349.211c18.831 0 34.095-15.264 34.095-34.094z" fill="url(#SVGID_00000134229094931156283160000006006614982109480879_)"/><path d="m391.443 114.423h-50.365v395.577h50.365c18.83 0 34.095-15.265 34.095-34.095v-327.387c-.001-18.83-15.265-34.095-34.095-34.095z" fill="url(#SVGID_00000120527733549865565270000000522601798808748718_)"/></g><g><path d="m466.66 348v-267.322c0-44.554-36.124-80.678-80.678-80.678h-322.653c-11.036 0-19.99 8.954-19.99 19.99v328.01c0 11.045 8.954 19.99 19.99 19.99h383.341c11.045 0 19.99-8.944 19.99-19.99z" fill="url(#SVGID_00000090283872110222618410000003624233726562828467_)"/><path d="m63.329 352.99c-2.751 0-4.989-2.238-4.989-4.99v-328.01c0-2.751 2.238-4.99 4.989-4.99h322.653c36.215 0 65.678 29.463 65.678 65.678v267.322c0 2.751-2.238 4.99-4.989 4.99z" fill="url(#SVGID_00000166676836961764724340000008932097756702149252_)"/><circle cx="299.062" cy="100.718" fill="url(#SVGID_00000075130852551181586340000005053556391602682804_)" r="64.497"/><g><path d="m370.1 352.99h-306.77c-2.744 0-4.99-2.246-4.99-4.99v-94.65l59.551-90.227c30.049-45.527 96.849-45.527 126.897.001l45.192 68.476z" fill="url(#SVGID_00000165927497124576524080000018009738992763967893_)"/><path d="m451.66 253.35v94.65c0 2.744-2.246 4.99-4.99 4.99h-236.81l80.12-121.39 10.213-15.475c30.048-45.528 96.848-45.529 126.897-.002z" fill="url(#SVGID_00000096739329816161677170000001631707272038545549_)"/></g><path d="m43.339 229.647v118.353c0 11.045 8.954 19.99 19.99 19.99h383.341c11.045 0 19.99-8.944 19.99-19.99v-118.353z" fill="url(#SVGID_00000178201988385692375540000005580601431468824995_)"/><path d="m466.66 149.619v-68.941c0-1.774-.078-3.529-.19-5.274h-74.025z" fill="url(#SVGID_00000056423837454769993130000014488603336334668674_)"/><path d="m385.982 0v60.689c0 11.041 8.95 19.991 19.991 19.991h60.689c0-44.558-36.122-80.68-80.68-80.68z" fill="url(#SVGID_00000130612004027936248410000002736293176418662326_)"/></g><g><path d="m454.858 466.73c-5.283 25.213-27.516 43.27-53.277 43.27h-359.35c23.903 0 44.533-16.755 49.435-40.15l56.103-267.744c3.196-15.251 16.644-26.174 32.227-26.174h304.914c15.921 0 27.813 14.642 24.548 30.225z" fill="url(#SVGID_00000057861866781843277760000015634911737199758266_)"/><path d="m454.858 466.73c-5.283 25.213-27.516 43.27-53.277 43.27h-359.35c23.903 0 44.533-16.755 49.435-40.15l56.103-267.744c3.196-15.251 16.644-26.174 32.227-26.174h304.914c15.921 0 27.813 14.642 24.548 30.225z" fill="url(#SVGID_00000057861866781843277760000015634911737199758266_)"/><path d="m509.46 206.16-54.6 260.57c-5.29 25.21-27.52 43.27-53.28 43.27h-47.28l69.99-334.07h60.62c15.92 0 27.81 14.64 24.55 30.23z" fill="url(#SVGID_00000149341013355871860100000005475998103632182956_)"/><g><path d="m446.67 367.99c11.045 0 19.99-8.944 19.99-19.99v-172.068h-286.664c-15.582 0-29.031 10.923-32.227 26.174l-34.759 165.884z" fill="url(#SVGID_00000049195303772673806750000005209449329930171017_)"/><path d="m179.996 175.932c-15.582 0-29.031 10.923-32.227 26.174l-31.616 150.884h330.517c2.751 0 4.989-2.238 4.989-4.99v-172.068z" fill="url(#SVGID_00000150071005605128799670000001008376889079785124_)"/><path d="m289.98 231.6-80.12 121.39h-93.71l31.62-150.88c3.19-15.26 16.64-26.18 32.23-26.18h73.24z" fill="url(#SVGID_00000007395783763828241730000005225093213194859150_)"/><path d="m451.66 253.35v94.65c0 2.744-2.246 4.99-4.99 4.99h-236.81l80.12-121.39 10.213-15.475c30.048-45.528 96.848-45.529 126.897-.002z" fill="url(#SVGID_00000073698259988273068350000011170308888165738918_)"/></g><g><path d="m454.858 466.73 33.531-160.026h-362.537l-34.185 163.146c-4.903 23.395-25.533 40.15-49.436 40.15h359.349c25.761 0 47.995-18.057 53.278-43.27z" fill="url(#SVGID_00000070100906594950450640000017788448460473095567_)"/><path d="m488.389 306.704 21.068-100.547c3.265-15.581-8.625-30.222-24.543-30.224h-304.924c-15.58.003-29.026 10.924-32.221 26.174l-21.917 104.598h362.537z" fill="url(#SVGID_00000001641907203359799050000003401919671883089295_)"/></g></g></g></svg>