<svg id="Capa_1" enable-background="new 0 0 510.001 510.001" height="512" viewBox="0 0 510.001 510.001" width="512" xmlns="http://www.w3.org/2000/svg" xmlns:xlink="http://www.w3.org/1999/xlink"><linearGradient id="lg1"><stop offset="0" stop-color="#fee45a"/><stop offset="1" stop-color="#fea613"/></linearGradient><linearGradient id="SVGID_1_" gradientUnits="userSpaceOnUse" x1="38.204" x2="323.319" xlink:href="#lg1" y1="135.264" y2="420.379"/><linearGradient id="lg2"><stop offset="0" stop-color="#fea613" stop-opacity="0"/><stop offset="1" stop-color="#e94444"/></linearGradient><linearGradient id="SVGID_00000116195237209998373480000005830549446561163649_" gradientUnits="userSpaceOnUse" x1="346.667" x2="299.334" xlink:href="#lg2" y1="155.879" y2="155.879"/><linearGradient id="SVGID_00000103234040135010431060000009590405935330964097_" gradientUnits="userSpaceOnUse" x1="384.861" x2="360.449" xlink:href="#lg2" y1="155.879" y2="155.879"/><linearGradient id="SVGID_00000045607017614275482020000005295691977093267359_" gradientUnits="userSpaceOnUse" x1="210.667" x2="123.998" xlink:href="#lg2" y1="146.241" y2="146.241"/><linearGradient id="SVGID_00000112617506459470883660000009266133271060268202_" gradientUnits="userSpaceOnUse" x1="212.769" x2="212.769" xlink:href="#lg2" y1="327.655" y2="514.566"/><linearGradient id="SVGID_00000131339396507190451210000012317578593937611191_" gradientUnits="userSpaceOnUse" x1="384.537" x2="438.87" xlink:href="#lg2" y1="312.212" y2="312.212"/><linearGradient id="lg3"><stop offset="0" stop-color="#b3dafe"/><stop offset="1" stop-color="#0182fc"/></linearGradient><linearGradient id="SVGID_00000139283927563878155420000017861155167385678261_" gradientUnits="userSpaceOnUse" x1="313.187" x2="424.9" xlink:href="#lg3" y1="118.361" y2="230.074"/><linearGradient id="SVGID_00000131328263497791270870000000830886337842402455_" gradientUnits="userSpaceOnUse" x1="258.4" x2="320.978" xlink:href="#lg3" y1="267.38" y2="329.957"/><linearGradient id="SVGID_00000152977535727517615050000000596608576885320381_" gradientUnits="userSpaceOnUse" x1="306.834" x2="237.334" y1="311.83" y2="263.83"><stop offset="0" stop-color="#0182fc" stop-opacity="0"/><stop offset="1" stop-color="#024c67"/></linearGradient><linearGradient id="lg4"><stop offset="0" stop-color="#bbec6c"/><stop offset="1" stop-color="#81b823"/></linearGradient><linearGradient id="SVGID_00000176009103665270808020000001411610720280937398_" gradientUnits="userSpaceOnUse" x1="133.973" x2="312.951" xlink:href="#lg4" y1="41.049" y2="220.027"/><linearGradient id="SVGID_00000125604674023353689510000014940639304874682291_" gradientUnits="userSpaceOnUse" x1="54.517" x2="117.095" xlink:href="#lg4" y1="238.237" y2="300.815"/><linearGradient id="SVGID_00000109026447984694195680000002663553116732658845_" gradientUnits="userSpaceOnUse" x1="205.271" x2="267.848" xlink:href="#lg4" y1="198.513" y2="261.091"/><linearGradient id="SVGID_00000123428115426417485840000005439350153689729936_" gradientUnits="userSpaceOnUse" x1="211.441" x2="331.045" xlink:href="#lg1" y1="177.836" y2="502.263"/><linearGradient id="SVGID_00000177463875732754467090000011464950031895403672_" gradientUnits="userSpaceOnUse" x1="430.849" x2="498.849" xlink:href="#lg2" y1="345.504" y2="363.504"/><linearGradient id="SVGID_00000163031678146870153480000002613075595419268789_" gradientUnits="userSpaceOnUse" x1="332.684" x2="557.864" xlink:href="#lg2" y1="336.935" y2="274.094"/><linearGradient id="SVGID_00000011743284505486720850000013261770096091110551_" gradientUnits="userSpaceOnUse" x1="265.31" x2="265.31" xlink:href="#lg2" y1="432.295" y2="528.819"/><linearGradient id="lg5"><stop offset="0" stop-color="#bbec6c" stop-opacity="0"/><stop offset="1" stop-color="#81b823"/></linearGradient><linearGradient id="SVGID_00000167384395522630960970000016461441651431605436_" gradientUnits="userSpaceOnUse" x1="226.456" x2="272.456" xlink:href="#lg5" y1="170.907" y2="319.907"/><linearGradient id="SVGID_00000035489142909103729460000009260617786002073750_" gradientUnits="userSpaceOnUse" x1="127.66" x2="173.66" xlink:href="#lg5" y1="201.408" y2="350.408"/><linearGradient id="SVGID_00000029757074951761699730000013949288620545889470_" gradientUnits="userSpaceOnUse" x1="428.48" x2="429.164" xlink:href="#lg1" y1="174.95" y2="176.806"/><linearGradient id="SVGID_00000150823250368294319280000002271552173103539612_" gradientUnits="userSpaceOnUse" x1="270.121" x2="381.454" y1="233.063" y2="349.729"><stop offset="0" stop-color="#b3dafe" stop-opacity="0"/><stop offset="1" stop-color="#0182fc"/></linearGradient><linearGradient id="SVGID_00000103237352071141552180000015207163101274239657_" gradientUnits="userSpaceOnUse" x1="315.983" x2="297.983" y1="241.801" y2="140.468"><stop offset="0" stop-color="#fff" stop-opacity="0"/><stop offset="1" stop-color="#fff"/></linearGradient><g><g><path d="m153.132 85.921c0-15.741-12.761-28.502-28.502-28.502h-96.128c-15.741 0-28.502 12.76-28.502 28.502v381.848c0 23.324 18.908 42.231 42.231 42.231h349.211c18.83 0 34.095-15.265 34.095-34.095v-327.387c0-18.83-15.265-34.095-34.095-34.095h-209.808c-15.742 0-28.502-12.761-28.502-28.502z" fill="url(#SVGID_1_)"/><path d="m425.537 197.334v-48.816c0-18.83-15.265-34.095-34.095-34.095h-99.442v82.91h133.537z" fill="url(#SVGID_00000116195237209998373480000005830549446561163649_)"/><path d="m425.537 197.334v-48.816c0-18.83-15.265-34.095-34.095-34.095h-34.776v82.91h68.871z" fill="url(#SVGID_00000103234040135010431060000009590405935330964097_)"/><path d="m181.634 114.423c-12.511 0-23.131-8.064-26.967-19.275v102.186h137.333v-82.91h-110.366z" fill="url(#SVGID_00000045607017614275482020000005295691977093267359_)"/><path d="m425.537 475.906v-232.199h-425.537v224.061c0 23.325 18.908 42.232 42.231 42.232h349.211c18.831 0 34.095-15.264 34.095-34.094z" fill="url(#SVGID_00000112617506459470883660000009266133271060268202_)"/><path d="m391.443 114.423h-50.365v395.577h50.365c18.83 0 34.095-15.265 34.095-34.095v-327.387c-.001-18.83-15.265-34.095-34.095-34.095z" fill="url(#SVGID_00000131339396507190451210000012317578593937611191_)"/></g><g><g><path d="m485.785 147.989c-.711-1.327-2.148-1.884-3.517-1.599-11.416 2.375-23.771-.872-32.628-9.73l-28.932-28.932c-16.535-16.535-38.96-25.824-62.344-25.826-11.635.006-21.065 9.439-21.065 21.075v182.661h32.036v-137.045l4.726 4.726c30.255 30.255 79.308 30.255 109.563 0l1.485-1.485c1.011-1.011 1.352-2.585.676-3.845z" fill="url(#SVGID_00000139283927563878155420000017861155167385678261_)"/><path d="m361.191 258.256c-18.802-28.291-64.145-31.221-101.276-6.544-37.132 24.677-51.991 67.616-33.19 95.907 18.802 28.291 64.145 31.22 101.276 6.543 37.132-24.676 51.992-67.615 33.19-95.906z" fill="url(#SVGID_00000131328263497791270870000000830886337842402455_)"/><path d="m361.191 258.256c-18.802-28.291-64.145-31.221-101.276-6.544-37.132 24.677-51.991 67.616-33.19 95.907 18.802 28.291 64.145 31.22 101.276 6.543 37.132-24.676 51.992-67.615 33.19-95.906z" fill="url(#SVGID_00000152977535727517615050000000596608576885320381_)"/></g><g><g><path d="m301.154.288-157.96 34.328c-5.707 1.24-9.778 6.291-9.778 12.132v209.749h32.036v-156.165c0-6.774 4.722-12.632 11.341-14.071l89.919-19.542c8.975-1.95 17.457 4.886 17.457 14.071v135.983h32.036v-203.738-.615c0-7.919-7.313-13.813-15.051-12.132z" fill="url(#SVGID_00000176009103665270808020000001411610720280937398_)"/><path d="m157.308 229.114c-18.802-28.291-64.145-31.221-101.276-6.544-37.132 24.677-51.991 67.616-33.19 95.907 18.802 28.291 64.145 31.22 101.276 6.543 37.132-24.677 51.992-67.616 33.19-95.906z" fill="url(#SVGID_00000125604674023353689510000014940639304874682291_)"/><path d="m308.062 189.389c-18.802-28.291-64.145-31.221-101.276-6.544-37.132 24.677-51.991 67.616-33.19 95.907 18.802 28.291 64.145 31.22 101.276 6.543 37.132-24.676 51.991-67.615 33.19-95.906z" fill="url(#SVGID_00000109026447984694195680000002663553116732658845_)"/></g></g></g><g><path d="m454.858 466.73c-5.283 25.213-27.516 43.27-53.277 43.27h-359.35c23.903 0 44.533-16.755 49.435-40.15l56.103-267.744c3.196-15.251 16.644-26.174 32.227-26.174h304.914c15.921 0 27.813 14.642 24.548 30.225z" fill="url(#SVGID_00000123428115426417485840000005439350153689729936_)"/><path d="m454.858 466.73c-5.283 25.213-27.516 43.27-53.277 43.27h-359.35c23.903 0 44.533-16.755 49.435-40.15l56.103-267.744c3.196-15.251 16.644-26.174 32.227-26.174h304.914c15.921 0 27.813 14.642 24.548 30.225z" fill="url(#SVGID_00000123428115426417485840000005439350153689729936_)"/><path d="m509.46 206.16-54.6 260.57c-5.29 25.21-27.52 43.27-53.28 43.27h-47.28l69.99-334.07h60.62c15.92 0 27.81 14.64 24.55 30.23z" fill="url(#SVGID_00000177463875732754467090000011464950031895403672_)"/><path d="m425.537 475.906v-299.974h-199.537v334.068h165.443c18.83 0 34.094-15.264 34.094-34.094z" fill="url(#SVGID_00000163031678146870153480000002613075595419268789_)"/><path d="m454.858 466.73 33.531-160.026h-362.537l-34.185 163.146c-4.903 23.395-25.533 40.15-49.436 40.15h359.349c25.761 0 47.995-18.057 53.278-43.27z" fill="url(#SVGID_00000011743284505486720850000013261770096091110551_)"/><g><g><path d="m218.825 175.932c-4.078 1.997-8.105 4.298-12.04 6.913-37.132 24.677-51.991 67.616-33.19 95.907 18.802 28.291 64.144 31.22 101.276 6.543 26.409-17.551 41.536-44.337 41.315-68.523h.019v-40.84z" fill="url(#SVGID_00000167384395522630960970000016461441651431605436_)"/><path d="m147.769 202.106-26.08 124.462c.812-.509 1.625-1.013 2.429-1.548 26.409-17.551 41.536-44.337 41.315-68.523h.019v-77.174c-8.85 4.364-15.551 12.607-17.683 22.783z" fill="url(#SVGID_00000035489142909103729460000009260617786002073750_)"/></g><g><path d="m432.113 175.932h-6.542c2.18.092 4.362.092 6.542 0z" fill="url(#SVGID_00000029757074951761699730000013949288620545889470_)"/><path d="m369.33 175.93v109.71h-.01c.22 24.19-14.91 50.97-41.32 68.52-37.13 24.68-82.47 21.75-101.28-6.54-8.73-13.14-10.2-29.43-5.55-45.59 17.34.26 36.41-5.24 53.7-16.73 19.89-13.22 33.38-31.68 38.73-50.32 8.44.12 16.48 1.61 23.7 4.44v-63.49z" fill="url(#SVGID_00000150823250368294319280000002271552173103539612_)"/></g></g><path d="m488.389 306.704 21.068-100.547c3.265-15.581-8.625-30.222-24.543-30.224h-304.924c-15.58.003-29.026 10.924-32.221 26.174l-21.917 104.598h362.537z" fill="url(#SVGID_00000103237352071141552180000015207163101274239657_)"/></g></g></svg>