<svg height="512" viewBox="0 0 32 32" width="512" xmlns="http://www.w3.org/2000/svg"><g id="Layer_2" data-name="Layer 2"><path d="m29 14.07a2 2 0 0 0 -2 .07l-3 1.86-2 1.2v-3.2a2 2 0 0 0 -2-2h-16a2 2 0 0 0 -2 2v14a2 2 0 0 0 2 2h16a2 2 0 0 0 2-2v-3.2l2 1.25 2.94 1.84a2 2 0 0 0 2 .08 2 2 0 0 0 1-1.73v-10.44a2 2 0 0 0 -.94-1.73z" fill="#46cdc9"/><g fill="#c7f9f8"><path d="m12.5 7a4.42 4.42 0 0 1 -.5 2 4.5 4.5 0 1 1 -6-6 4.42 4.42 0 0 1 2-.5 4.51 4.51 0 0 1 4.5 4.5z"/><path d="m20.5 8a3.32 3.32 0 0 1 -.24 1.26 3.5 3.5 0 1 1 -4.52-4.52 3.32 3.32 0 0 1 1.26-.24 3.5 3.5 0 0 1 3.5 3.5z"/></g></g></svg>