<svg id="Capa_1" enable-background="new 0 0 510.001 510.001" height="512" viewBox="0 0 510.001 510.001" width="512" xmlns="http://www.w3.org/2000/svg" xmlns:xlink="http://www.w3.org/1999/xlink"><linearGradient id="lg1"><stop offset="0" stop-color="#fee45a"/><stop offset="1" stop-color="#fea613"/></linearGradient><linearGradient id="SVGID_1_" gradientUnits="userSpaceOnUse" x1="38.204" x2="323.319" xlink:href="#lg1" y1="135.264" y2="420.379"/><linearGradient id="lg2"><stop offset="0" stop-color="#fea613" stop-opacity="0"/><stop offset="1" stop-color="#e94444"/></linearGradient><linearGradient id="SVGID_00000029036626297086358220000009667784562209894334_" gradientUnits="userSpaceOnUse" x1="212.769" x2="212.769" xlink:href="#lg2" y1="327.655" y2="514.566"/><linearGradient id="SVGID_00000152959508635331150400000003447412779153424790_" gradientUnits="userSpaceOnUse" x1="384.537" x2="438.87" xlink:href="#lg2" y1="312.212" y2="312.212"/><linearGradient id="SVGID_00000001640770196850993450000013075160024552265644_" gradientUnits="userSpaceOnUse" x1="122.503" x2="328.658" y1="51.498" y2="257.654"><stop offset="0" stop-color="#eaf9fa"/><stop offset="1" stop-color="#b3dafe"/></linearGradient><linearGradient id="SVGID_00000096765251752178681650000016909011291863633325_" gradientUnits="userSpaceOnUse" x1="424.029" x2="473.731" y1="183.995" y2="183.995"><stop offset="0" stop-color="#7bacdf" stop-opacity="0"/><stop offset="1" stop-color="#7bacdf"/></linearGradient><linearGradient id="SVGID_00000007398344663276250120000003395799380004520101_" gradientUnits="userSpaceOnUse" x1="218.353" x2="294.472" y1="163.572" y2="239.69"><stop offset="0" stop-color="#fd4755"/><stop offset="1" stop-color="#a72b2b"/></linearGradient><linearGradient id="SVGID_00000126321758332348115400000016780928085071793024_" gradientUnits="userSpaceOnUse" x1="240.479" x2="194.436" y1="183.995" y2="183.995"><stop offset="0" stop-color="#a72b2b" stop-opacity="0"/><stop offset="1" stop-color="#42210b"/></linearGradient><linearGradient id="lg3"><stop offset="0" stop-color="#5a5a5a"/><stop offset="1" stop-color="#444"/></linearGradient><linearGradient id="SVGID_00000026148738324822855850000013026811099732358542_" gradientUnits="userSpaceOnUse" x1="170.124" x2="302.184" xlink:href="#lg3" y1="235.468" y2="367.527"/><linearGradient id="SVGID_00000111190182563466910170000009478531992948852913_" gradientUnits="userSpaceOnUse" x1="170.124" x2="302.184" xlink:href="#lg3" y1="-37.228" y2="94.832"/><linearGradient id="SVGID_00000099641997109088370120000013911320424502939316_" gradientUnits="userSpaceOnUse" x1="211.441" x2="331.045" xlink:href="#lg1" y1="177.836" y2="502.263"/><linearGradient id="SVGID_00000073694169863156074940000004964528541882078370_" gradientUnits="userSpaceOnUse" x1="430.849" x2="498.849" xlink:href="#lg2" y1="345.504" y2="363.504"/><linearGradient id="SVGID_00000104667336440956361560000018192564818942710964_" gradientUnits="userSpaceOnUse" x1="293.595" x2="336.595" y1="211.982" y2="406.982"><stop offset="0" stop-color="#eaf9fa" stop-opacity="0"/><stop offset="1" stop-color="#b3dafe"/></linearGradient><linearGradient id="SVGID_00000154408455286903197650000000650926244797217213_" gradientUnits="userSpaceOnUse" x1="287.895" x2="300.895" y1="269.414" y2="466.414"><stop offset="0" stop-color="#433f43" stop-opacity="0"/><stop offset=".3007" stop-color="#3c393c" stop-opacity=".301"/><stop offset=".7373" stop-color="#292729" stop-opacity=".737"/><stop offset="1" stop-color="#1a1a1a"/></linearGradient><linearGradient id="SVGID_00000147196378461296345300000016556875033116417214_" gradientUnits="userSpaceOnUse" x1="253.113" x2="320.446" y1="189.377" y2="318.71"><stop offset="0" stop-color="#fd4755" stop-opacity="0"/><stop offset="1" stop-color="#a72b2b"/></linearGradient><linearGradient id="SVGID_00000145017811838608044800000016948872787625525949_" gradientUnits="userSpaceOnUse" x1="265.31" x2="265.31" xlink:href="#lg2" y1="432.295" y2="528.819"/><linearGradient id="SVGID_00000127731366853823653380000015230069289007061425_" gradientUnits="userSpaceOnUse" x1="315.983" x2="297.983" y1="241.801" y2="140.468"><stop offset="0" stop-color="#fff" stop-opacity="0"/><stop offset="1" stop-color="#fff"/></linearGradient><g><g><path d="m153.132 85.921c0-15.741-12.761-28.502-28.502-28.502h-96.128c-15.741 0-28.502 12.76-28.502 28.502v381.848c0 23.324 18.908 42.231 42.231 42.231h349.211c18.83 0 34.095-15.265 34.095-34.095v-327.387c0-18.83-15.265-34.095-34.095-34.095h-209.808c-15.742 0-28.502-12.761-28.502-28.502z" fill="url(#SVGID_1_)"/><path d="m425.537 475.906v-232.199h-425.537v224.061c0 23.325 18.908 42.232 42.231 42.232h349.211c18.831 0 34.095-15.264 34.095-34.094z" fill="url(#SVGID_00000029036626297086358220000009667784562209894334_)"/><path d="m391.443 114.423h-50.365v395.577h50.365c18.83 0 34.095-15.265 34.095-34.095v-327.387c-.001-18.83-15.265-34.095-34.095-34.095z" fill="url(#SVGID_00000152959508635331150400000003447412779153424790_)"/></g><path d="m438.835 0h-367.671c-15.367 0-27.825 12.458-27.825 27.825v312.341c0 15.367 12.458 27.825 27.825 27.825h367.672c15.367 0 27.824-12.457 27.824-27.825v-312.341c0-15.367-12.458-27.825-27.825-27.825zm-339.169 339.781c0 3.751-3.04 6.791-6.791 6.791h-22.418c-3.751 0-6.791-3.04-6.791-6.791v-22.418c0-3.751 3.04-6.791 6.791-6.791h22.418c3.751 0 6.791 3.04 6.791 6.791zm0-289.153c0 3.75-3.04 6.791-6.791 6.791h-22.418c-3.751 0-6.791-3.04-6.791-6.791v-22.419c0-3.75 3.04-6.791 6.791-6.791h22.418c3.751 0 6.791 3.04 6.791 6.791zm69.333 289.153c0 3.751-3.04 6.791-6.791 6.791h-22.418c-3.75 0-6.791-3.04-6.791-6.791v-22.418c0-3.751 3.041-6.791 6.791-6.791h22.418c3.751 0 6.791 3.04 6.791 6.791zm0-289.153c0 3.75-3.04 6.791-6.791 6.791h-22.418c-3.75 0-6.791-3.04-6.791-6.791v-22.419c0-3.75 3.041-6.791 6.791-6.791h22.418c3.751 0 6.791 3.04 6.791 6.791zm69.334 289.153c0 3.751-3.04 6.791-6.791 6.791h-22.418c-3.75 0-6.791-3.04-6.791-6.791v-22.418c0-3.751 3.04-6.791 6.791-6.791h22.418c3.75 0 6.791 3.04 6.791 6.791zm0-289.153c0 3.75-3.04 6.791-6.791 6.791h-22.418c-3.75 0-6.791-3.04-6.791-6.791v-22.419c0-3.75 3.04-6.791 6.791-6.791h22.418c3.75 0 6.791 3.04 6.791 6.791zm69.333 289.153c0 3.751-3.04 6.791-6.791 6.791h-22.418c-3.751 0-6.791-3.04-6.791-6.791v-22.418c0-3.751 3.04-6.791 6.791-6.791h22.418c3.751 0 6.791 3.04 6.791 6.791zm0-289.153c0 3.75-3.04 6.791-6.791 6.791h-22.418c-3.751 0-6.791-3.04-6.791-6.791v-22.419c0-3.75 3.04-6.791 6.791-6.791h22.418c3.751 0 6.791 3.04 6.791 6.791zm69.333 289.153c0 3.751-3.04 6.791-6.791 6.791h-22.418c-3.75 0-6.791-3.04-6.791-6.791v-22.418c0-3.751 3.041-6.791 6.791-6.791h22.418c3.751 0 6.791 3.04 6.791 6.791zm0-289.153c0 3.75-3.04 6.791-6.791 6.791h-22.418c-3.75 0-6.791-3.04-6.791-6.791v-22.419c0-3.75 3.041-6.791 6.791-6.791h22.418c3.751 0 6.791 3.04 6.791 6.791zm69.334 289.153c0 3.751-3.041 6.791-6.791 6.791h-22.418c-3.75 0-6.791-3.04-6.791-6.791v-22.418c0-3.751 3.04-6.791 6.791-6.791h22.418c3.75 0 6.791 3.04 6.791 6.791zm0-289.153c0 3.75-3.041 6.791-6.791 6.791h-22.418c-3.75 0-6.791-3.04-6.791-6.791v-22.419c0-3.75 3.04-6.791 6.791-6.791h22.418c3.75 0 6.791 3.04 6.791 6.791z" fill="url(#SVGID_00000001640770196850993450000013075160024552265644_)"/><path d="m438.835 0h-113.801v367.99h113.801c15.367 0 27.824-12.457 27.824-27.825v-312.34c.001-15.367-12.457-27.825-27.824-27.825zm-61.836 339.781c0 3.751-3.04 6.791-6.791 6.791h-22.418c-3.75 0-6.791-3.04-6.791-6.791v-22.418c0-3.751 3.041-6.791 6.791-6.791h22.418c3.751 0 6.791 3.04 6.791 6.791zm0-289.153c0 3.75-3.04 6.791-6.791 6.791h-22.418c-3.75 0-6.791-3.04-6.791-6.791v-22.419c0-3.75 3.041-6.791 6.791-6.791h22.418c3.751 0 6.791 3.04 6.791 6.791zm69.334 289.153c0 3.751-3.041 6.791-6.791 6.791h-22.418c-3.75 0-6.791-3.04-6.791-6.791v-22.418c0-3.751 3.04-6.791 6.791-6.791h22.418c3.75 0 6.791 3.04 6.791 6.791zm0-289.153c0 3.75-3.041 6.791-6.791 6.791h-22.418c-3.75 0-6.791-3.04-6.791-6.791v-22.419c0-3.75 3.04-6.791 6.791-6.791h22.418c3.75 0 6.791 3.04 6.791 6.791z" fill="url(#SVGID_00000096765251752178681650000016909011291863633325_)"/><g><path d="m317.57 169.908c-1.434-1.802-3.189-3.421-5.259-4.789l-73.581-48.566c-15.039-9.923-35.074.863-35.074 18.875v97.132c0 18.013 20.036 28.798 35.074 18.875l73.581-48.566c2.07-1.368 3.825-2.986 5.259-4.789 6.532-8.172 6.532-19.998 0-28.172z" fill="url(#SVGID_00000007398344663276250120000003395799380004520101_)"/><path d="m278.313 142.679-39.582-26.126c-15.039-9.923-35.074.863-35.074 18.875v97.132c0 18.013 20.036 28.798 35.074 18.875l39.582-26.125z" fill="url(#SVGID_00000126321758332348115400000016780928085071793024_)"/></g><g><path d="m43.339 288.995v51.17c0 15.367 12.458 27.825 27.825 27.825h367.672c15.367 0 27.824-12.457 27.824-27.825v-51.17zm56.327 50.786c0 3.751-3.04 6.791-6.791 6.791h-22.418c-3.751 0-6.791-3.04-6.791-6.791v-22.418c0-3.751 3.04-6.791 6.791-6.791h22.418c3.751 0 6.791 3.04 6.791 6.791zm69.333 0c0 3.751-3.04 6.791-6.791 6.791h-22.418c-3.75 0-6.791-3.04-6.791-6.791v-22.418c0-3.751 3.041-6.791 6.791-6.791h22.418c3.751 0 6.791 3.04 6.791 6.791zm69.334 0c0 3.751-3.04 6.791-6.791 6.791h-22.418c-3.75 0-6.791-3.04-6.791-6.791v-22.418c0-3.751 3.04-6.791 6.791-6.791h22.418c3.75 0 6.791 3.04 6.791 6.791zm69.333 0c0 3.751-3.04 6.791-6.791 6.791h-22.418c-3.751 0-6.791-3.04-6.791-6.791v-22.418c0-3.751 3.04-6.791 6.791-6.791h22.418c3.751 0 6.791 3.04 6.791 6.791zm69.333 0c0 3.751-3.04 6.791-6.791 6.791h-22.418c-3.75 0-6.791-3.04-6.791-6.791v-22.418c0-3.751 3.041-6.791 6.791-6.791h22.418c3.751 0 6.791 3.04 6.791 6.791zm69.334 0c0 3.751-3.041 6.791-6.791 6.791h-22.418c-3.75 0-6.791-3.04-6.791-6.791v-22.418c0-3.751 3.04-6.791 6.791-6.791h22.418c3.75 0 6.791 3.04 6.791 6.791z" fill="url(#SVGID_00000026148738324822855850000013026811099732358542_)"/><path d="m466.66 78.995v-51.17c0-15.367-12.458-27.825-27.825-27.825h-367.671c-15.367 0-27.825 12.458-27.825 27.825v51.17zm-56.327-50.786c0-3.75 3.04-6.791 6.791-6.791h22.418c3.75 0 6.791 3.04 6.791 6.791v22.418c0 3.75-3.041 6.791-6.791 6.791h-22.418c-3.75 0-6.791-3.04-6.791-6.791zm-69.334 0c0-3.75 3.041-6.791 6.791-6.791h22.418c3.751 0 6.791 3.04 6.791 6.791v22.418c0 3.75-3.04 6.791-6.791 6.791h-22.418c-3.75 0-6.791-3.04-6.791-6.791zm-69.333 0c0-3.75 3.04-6.791 6.791-6.791h22.418c3.751 0 6.791 3.04 6.791 6.791v22.418c0 3.75-3.04 6.791-6.791 6.791h-22.418c-3.751 0-6.791-3.04-6.791-6.791zm-69.333 0c0-3.75 3.04-6.791 6.791-6.791h22.418c3.75 0 6.791 3.04 6.791 6.791v22.418c0 3.75-3.04 6.791-6.791 6.791h-22.418c-3.75 0-6.791-3.04-6.791-6.791zm-69.334 0c0-3.75 3.041-6.791 6.791-6.791h22.418c3.751 0 6.791 3.04 6.791 6.791v22.418c0 3.75-3.04 6.791-6.791 6.791h-22.418c-3.75 0-6.791-3.04-6.791-6.791zm-69.333 0c0-3.75 3.04-6.791 6.791-6.791h22.418c3.751 0 6.791 3.04 6.791 6.791v22.418c0 3.75-3.04 6.791-6.791 6.791h-22.418c-3.751 0-6.791-3.04-6.791-6.791z" fill="url(#SVGID_00000111190182563466910170000009478531992948852913_)"/></g><g><path d="m454.858 466.73c-5.283 25.213-27.516 43.27-53.277 43.27h-359.35c23.903 0 44.533-16.755 49.435-40.15l56.103-267.744c3.196-15.251 16.644-26.174 32.227-26.174h304.914c15.921 0 27.813 14.642 24.548 30.225z" fill="url(#SVGID_00000099641997109088370120000013911320424502939316_)"/><path d="m454.858 466.73c-5.283 25.213-27.516 43.27-53.277 43.27h-359.35c23.903 0 44.533-16.755 49.435-40.15l56.103-267.744c3.196-15.251 16.644-26.174 32.227-26.174h304.914c15.921 0 27.813 14.642 24.548 30.225z" fill="url(#SVGID_00000099641997109088370120000013911320424502939316_)"/><path d="m509.46 206.16-54.6 260.57c-5.29 25.21-27.52 43.27-53.28 43.27h-47.28l69.99-334.07h60.62c15.92 0 27.81 14.64 24.55 30.23z" fill="url(#SVGID_00000073694169863156074940000004964528541882078370_)"/><g><g><path d="m180 175.93c-15.59 0-29.04 10.92-32.23 26.18l-5.77 27.54-12.44 59.34h337.1v-113.06z" fill="url(#SVGID_00000104667336440956361560000018192564818942710964_)"/><path d="m142 229.65-28.99 138.34h325.82c15.37 0 27.83-12.46 27.83-27.82v-110.52zm27 110.13c0 3.75-3.04 6.79-6.79 6.79h-22.42c-3.75 0-6.79-3.04-6.79-6.79v-22.42c0-3.75 3.04-6.79 6.79-6.79h22.42c3.75 0 6.79 3.04 6.79 6.79zm69.33 0c0 3.75-3.04 6.79-6.79 6.79h-22.42c-3.75 0-6.79-3.04-6.79-6.79v-22.42c0-3.75 3.04-6.79 6.79-6.79h22.42c3.75 0 6.79 3.04 6.79 6.79zm69.34 0c0 3.75-3.04 6.79-6.8 6.79h-22.41c-3.75 0-6.79-3.04-6.79-6.79v-22.42c0-3.75 3.04-6.79 6.79-6.79h22.41c3.76 0 6.8 3.04 6.8 6.79zm69.33 0c0 3.75-3.04 6.79-6.79 6.79h-22.42c-3.75 0-6.79-3.04-6.79-6.79v-22.42c0-3.75 3.04-6.79 6.79-6.79h22.42c3.75 0 6.79 3.04 6.79 6.79zm69.331 0c0 3.75-3.04 6.79-6.79 6.79h-22.42c-3.75 0-6.79-3.04-6.79-6.79v-22.42c0-3.75 3.04-6.79 6.79-6.79h22.42c3.75 0 6.79 3.04 6.79 6.79z" fill="url(#SVGID_00000154408455286903197650000000650926244797217213_)"/></g><path d="m203.657 232.561c0 18.013 20.036 28.798 35.074 18.875l73.581-48.566c2.07-1.368 3.825-2.986 5.259-4.789 5.056-6.327 6.18-14.836 3.409-22.152h-117.323z" fill="url(#SVGID_00000147196378461296345300000016556875033116417214_)"/></g><g><path d="m454.858 466.73 33.531-160.026h-362.537l-34.185 163.146c-4.903 23.395-25.533 40.15-49.436 40.15h359.349c25.761 0 47.995-18.057 53.278-43.27z" fill="url(#SVGID_00000145017811838608044800000016948872787625525949_)"/><path d="m488.389 306.704 21.068-100.547c3.265-15.581-8.625-30.222-24.543-30.224h-304.924c-15.58.003-29.026 10.924-32.221 26.174l-21.917 104.598h362.537z" fill="url(#SVGID_00000127731366853823653380000015230069289007061425_)"/></g></g></g></svg>