<?xml version="1.0" encoding="iso-8859-1"?>
<!-- Generator: Adobe Illustrator 19.0.0, SVG Export Plug-In . SVG Version: 6.00 Build 0)  -->
<svg version="1.1" id="Layer_1" xmlns="http://www.w3.org/2000/svg" xmlns:xlink="http://www.w3.org/1999/xlink" x="0px" y="0px"
	 viewBox="0 0 512 512" style="enable-background:new 0 0 512 512;" xml:space="preserve">
<path style="fill:#FFCD54;" d="M0,256.006C0,397.402,114.606,512.004,255.996,512C397.394,512.004,512,397.402,512,256.006
	C512.009,114.61,397.394,0,255.996,0C114.606,0,0,114.614,0,256.006z"/>
<path style="fill:#F4BA41;" d="M511.733,266.518c-0.211-0.192-0.368-0.438-0.607-0.607c-0.462-0.657-89.426-89.622-90.085-90.085
	c-1.254-1.783-3.226-3.026-5.574-3.026H411.1c-0.455-0.636-31.001-31.178-31.659-31.639c-1.254-1.785-3.226-3.027-5.575-3.027
	H232.16l-19.987-18.905c-1.294-1.219-2.993-1.895-4.767-1.895H96.533c-3.833,0-6.933,3.104-6.933,6.933V354.77
	c0,11.521,4.901,21.698,12.788,28.917c0.549,0.567,126.203,126.252,126.786,126.786c0.047,0.048,0.096,0.094,0.142,0.142
	c8.77,0.908,17.668,1.385,26.679,1.385C393.869,512.004,506.213,403.031,511.733,266.518z"/>
<path style="fill:#F4F6F9;" d="M415.467,172.8H380.8v-27.733c0-3.829-3.101-6.933-6.933-6.933H232.16l-19.987-18.905
	c-1.293-1.219-2.993-1.895-4.767-1.895H96.533c-3.833,0-6.933,3.104-6.933,6.933v230.502c0,22.371,18.274,39.898,41.6,39.898
	h241.178c26.65,0,50.022-23.555,50.022-50.412V179.733C422.4,175.904,419.299,172.8,415.467,172.8z M158.933,179.733v175.036
	c0,15.326-11.402,26.031-27.733,26.031c-15.81,0-27.733-11.193-27.733-26.031V131.2H204.65l19.987,18.905
	c1.293,1.219,2.993,1.895,4.767,1.895h137.53v20.8H165.867C162.034,172.8,158.933,175.904,158.933,179.733z M408.533,344.255
	c0,19.127-17.232,36.545-36.156,36.545H163.49c5.898-6.838,9.31-15.817,9.31-26.031V186.667h235.733V344.255z"/>
<g>
</g>
<g>
</g>
<g>
</g>
<g>
</g>
<g>
</g>
<g>
</g>
<g>
</g>
<g>
</g>
<g>
</g>
<g>
</g>
<g>
</g>
<g>
</g>
<g>
</g>
<g>
</g>
<g>
</g>
</svg>
