<?xml version="1.0" encoding="UTF-8"?>
<!-- Generator: Adobe Illustrator 25.2.3, SVG Export Plug-In . SVG Version: 6.00 Build 0)  -->
<svg xmlns="http://www.w3.org/2000/svg" xmlns:xlink="http://www.w3.org/1999/xlink" version="1.1" id="Capa_1" x="0px" y="0px" viewBox="0 0 511.19 511.19" style="enable-background:new 0 0 511.19 511.19;" xml:space="preserve" width="512" height="512">
<g>
	<g>
		<path style="fill:#FFFFFF;" d="M255.942,508.94c-9.428,0.037-18.86-0.454-28.242-1.491c-50.336-5.56-98.643-26.742-137.466-59.154    C17.85,387.865-15.316,288.763,6.74,196.944c22.09-91.96,99.926-169.911,193.135-189.053    C252.899-2.997,307.894,1.78,357.82,23.018c27.077,11.518,52.239,27.619,73.71,47.767    c81.55,76.526,103.696,202.795,51.466,301.774c-25.389,48.114-65.985,87.051-115.035,110.54    C333.132,499.779,294.567,508.789,255.942,508.94z"/>
	</g>
	<g>
		<g>
			<g>
				<path style="fill:#FFC17D;" d="M499.465,255.379c0,3.028-0.047,6.032-0.185,9.014c0,0.413-0.023,0.849-0.046,1.262      c-1.529,36.055-11.121,70.023-27.061,100.23c-14.62,27.775-34.614,52.34-58.571,72.386c-1.437,1.193-2.896,2.385-4.356,3.555      c-2.525,2.018-5.074,3.968-7.692,5.872c-40.175,29.518-89.918,46.95-143.785,46.95c-46.361,0-89.663-12.936-126.455-35.344      c-5.954-3.624-11.723-7.5-17.33-11.605c-2.016-1.491-4.008-3.005-5.978-4.541c-12.581-9.817-24.142-20.872-34.498-32.936      c-0.301-0.344-0.602-0.688-0.903-1.032c-4.68-5.528-9.129-11.285-13.299-17.225c-27.246-38.716-43.233-85.78-43.233-136.583      c0-16.904,1.761-33.395,5.143-49.312c0.162-0.78,0.324-1.537,0.51-2.317c8.526-38.418,26.389-73.372,51.111-102.408      c0.255-0.321,0.533-0.665,0.857-0.986c39.642-46.147,96.706-77.179,161.116-83.165c0.649-0.069,1.274-0.138,1.923-0.161      c6.927-0.619,13.948-0.917,21.037-0.917c28.081,0,55.026,4.725,80.094,13.463c0.371,0.115,0.741,0.229,1.089,0.39      c29.355,10.321,56.092,26.147,78.959,46.216c0.324,0.252,0.649,0.528,0.95,0.826c25.207,22.317,45.642,49.794,59.636,80.757      c0.185,0.367,0.348,0.711,0.487,1.078C492.167,188.36,499.465,221.021,499.465,255.379z"/>
			</g>
			<g>
				<g>
					<path style="fill:#FADED3;" d="M88.011,103.773c-5.097-0.367-10.171-1.33-15.176-2.431c0.255-0.321,0.533-0.665,0.857-0.986       c4.773,1.032,9.592,1.926,14.411,2.294c25.648,1.927,50.253-10.78,66.541-20.505c19.74-11.789,38.275-25.642,55.095-41.193       c3.823-3.532,7.623-7.202,11.307-10.78c4.495-4.335,9.036-8.739,13.762-12.982c0.649-0.069,1.274-0.138,1.923-0.161       c-5.12,4.518-10.032,9.266-14.874,13.968c-3.684,3.578-7.507,7.248-11.329,10.78c-16.89,15.619-35.495,29.518-55.281,41.353       C138.819,92.924,113.983,105.745,88.011,103.773z"/>
				</g>
				<g>
					<path style="fill:#FADED3;" d="M338.951,29.965c-4.078,13.716-16.774,24.954-25.347,31.262       c-38.437,28.234-85.284,43.28-130.602,57.821c-48.261,15.482-98.189,31.491-137.576,63.509       c-8.758,7.11-16.844,15-24.211,23.509c0.162-0.78,0.324-1.537,0.51-2.317c7.02-7.981,14.689-15.367,22.96-22.087       c39.572-32.133,89.594-48.188,137.97-63.716c45.225-14.495,91.98-29.518,130.255-57.638       c8.457-6.216,20.991-17.317,24.953-30.734C338.233,29.69,338.604,29.805,338.951,29.965z"/>
				</g>
				<g>
					<path style="fill:#FADED3;" d="M309.782,130.608c-17.84-6.376-32.344-6.628-43.14-0.757       c-10.588,5.757-18.164,18.142-20.759,33.945c-1.367,8.188-1.483,16.651-1.575,24.84c-0.07,5.459-0.162,11.124-0.602,16.651       c-1.066,13.509-5.723,38.395-24.791,53.417c-22.891,18.028-55.976,13.532-79.283,3.28c-1.066-0.459-2.155-0.94-3.22-1.445       c-7.46-3.349-15.152-6.835-23.122-5.986c-11.005,1.17-18.906,10.206-22.613,18.28c-4.309,9.358-5.19,19.794-6.024,29.885       l-6.626,80.276c-0.811,9.908-1.83,19.105-4.518,27.225c-0.301-0.344-0.602-0.688-0.903-1.032       c2.525-7.867,3.475-16.743,4.263-26.284l6.626-80.275c0.857-10.184,1.714-20.711,6.117-30.275       c3.846-8.349,12.071-17.729,23.563-18.945c8.271-0.872,16.126,2.683,23.702,6.101c1.089,0.482,2.155,0.963,3.221,1.445       c23.007,10.092,55.605,14.564,78.102-3.142c18.72-14.748,23.308-39.289,24.35-52.615c0.44-5.505,0.533-11.124,0.602-16.56       c0.116-8.234,0.209-16.743,1.576-25.023c2.688-16.147,10.472-28.83,21.362-34.771c11.098-6.032,25.926-5.803,44.09,0.688       c3.591,1.284,7.229,2.729,10.75,4.106c10.217,4.083,20.806,8.28,31.88,9.06c16.334,1.147,33.178-5.757,43.928-18.005       c10.009-11.422,14.504-26.399,18.859-40.895c0.765-2.523,1.529-5.069,2.317-7.615c0.324,0.252,0.649,0.528,0.95,0.826       c-0.718,2.385-1.46,4.771-2.155,7.11c-4.402,14.61-8.92,29.725-19.091,41.307c-10.982,12.546-28.196,19.587-44.901,18.418       c-11.237-0.803-21.918-5.046-32.228-9.129C316.988,133.314,313.373,131.892,309.782,130.608z"/>
				</g>
				<g>
					<path style="fill:#FADED3;" d="M499.279,264.393c0,0.413-0.023,0.849-0.046,1.262c-2.757,0.986-5.723,1.445-8.874,1.17       c-9.128-0.78-15.917-7.363-22.497-13.739c-5.978-5.78-12.14-11.743-19.995-13.395c-12.164-2.546-24.049,6.468-29.494,16.697       c-5.19,9.748-6.487,21.078-7.739,32.041l-0.394,3.463c-5.051,42.89-17.052,79.198-35.61,107.936       c-4.356,6.743-9.87,14.129-17.747,17.844c-10.125,4.771-23.771,2.661-33.919-5.275c-8.225-6.422-14.596-16.353-18.998-29.541       c-14.434-43.303-0.602-89.702,13.067-125.298c6.997-18.188,15.987-39.129,29.679-56.766       c14.527-18.647,33.108-31.445,52.384-36.032c12.025-2.867,24.605-2.706,36.792-2.569c5.584,0.069,11.353,0.138,17.006-0.069       c7.785-0.321,16.937-1.422,25.602-4.358c0.185,0.367,0.348,0.711,0.487,1.078c-7.53,2.546-16.241,4.037-26.042,4.427       c-5.677,0.206-11.469,0.138-17.052,0.069c-12.117-0.138-24.652-0.298-36.537,2.546c-18.998,4.518-37.371,17.179-51.713,35.62       c-13.623,17.5-22.566,38.371-29.517,56.468c-13.6,35.413-27.385,81.56-13.067,124.519       c4.333,12.982,10.588,22.729,18.605,28.991c9.824,7.684,22.984,9.748,32.714,5.161c7.623-3.601,13.021-10.826,17.284-17.408       c18.465-28.601,30.397-64.771,35.425-107.477l0.394-3.44c1.274-11.078,2.572-22.523,7.877-32.477       c5.653-10.596,18.025-19.931,30.745-17.271c8.202,1.72,14.481,7.821,20.574,13.693c6.719,6.514,13.067,12.683,21.779,13.417       C493.58,265.929,496.546,265.425,499.279,264.393z"/>
				</g>
			</g>
		</g>
		<g>
			<g>
				<path style="fill:#331510;" d="M472.172,365.884c-14.62,27.775-34.614,52.34-58.571,72.386      c-1.437,1.193-3.792-1.388-5.252-0.219c-2.525,2.018-7.488-1.342-10.106,0.561l-283.022,3.952      c-2.016-1.491-5.246,2.127-7.216,0.59c-18.674-14.587-35.101-31.835-48.701-51.193c3.777-21.881,13.137-42.89,27.293-59.541      c9.8-11.491,21.848-21.376,28.915-34.702c5.584-10.505,7.646-22.454,9.059-34.243c4.356-36.262,3.128-73.143,9.777-109.06      s22.705-72.248,53.288-92.661c26.922-17.982,61.374-21.17,93.695-18.028c14.921,1.445,33.108,5.94,47.913,8.234      c9.777,1.514,17.678,8.463,24.814,15.252c11.932,11.376,23.632,23.303,31.996,37.477c11.468,19.449,16.125,42.179,17.516,64.656      c1.413,22.5-0.255,45.046-0.463,67.569c-0.185,18.899,0.904,38.739,10.704,54.977c8.967,14.817,24.096,24.794,35.865,37.546      C459.568,340.127,466.89,352.512,472.172,365.884z"/>
			</g>
			<g>
				<g>
					<g>
						<path style="fill:#FF8476;" d="M320.069,388.659c-8.387-2.408-14.874-4.151-18.002-5.39        c-9.592-3.784-11.955-25.092-12.441-39.587c-0.278-7.844,0.023-13.693,0.023-13.693l-25.393-4.518l-0.046-0.757l-2.062,0.367        l-2.085-0.367l-0.023,0.757l-25.393,4.518c0,0,0.278,5.757,0.046,13.509c-0.487,14.495-2.85,35.964-12.488,39.771        c-1.877,0.734-4.981,1.674-9.013,2.844l4.063,29.819l42.819,1.878l23.589,10.907l41.41-20.609L320.069,388.659z"/>
					</g>
					<g style="opacity:0.31;">
						<path style="fill:#FADED3;" d="M320.069,388.659c-8.387-2.408-14.874-4.151-18.002-5.39        c-9.592-3.784-11.955-25.092-12.441-39.587c-0.278-7.844,0.023-13.693,0.023-13.693l-25.393-4.518l-0.046-0.757l-2.062,0.367        l-2.085-0.367l-0.023,0.757l-25.393,4.518c0,0,0.278,5.757,0.046,13.509c-0.487,14.495-2.85,35.964-12.488,39.771        c-1.877,0.734-4.981,1.674-9.013,2.844l4.399,51.399l46.623-17.313l36.528,20.922L320.069,388.659z"/>
					</g>
				</g>
				<g>
					<path style="fill:#A65236;" d="M289.625,343.682c-7.808,3.578-16.241,5.734-24.837,6.124       c-10.333,0.459-20.806-1.789-30.096-6.307c0.232-7.752-0.046-13.509-0.046-13.509l25.393-4.518l0.023-0.757l2.085,0.367       l2.062-0.367l0.046,0.757l25.393,4.518C289.648,329.989,289.347,335.838,289.625,343.682z"/>
				</g>
			</g>
			<g>
				<g>
					<path style="fill:#FF8476;" d="M413.532,226.48c-3.916,11.261-12.604,20.78-23.424,25.596       c-8.596,3.853-18.373,4.679-27.501,2.546c-0.463,2.385-0.927,4.748-1.436,7.133v0.023c-2.062,10.046-4.402,19.863-7.02,29.083       c-1.158,4.06-2.966,7.798-5.282,11.261c0,0,0,0-0.023,0.023c-30.583,45.069-154.582,39.083-175.851,14.243       c-3.058-3.578-5.699-8.761-8.016-15.069c-4.055-10.94-7.067-25.275-9.337-40.39c-0.602,0.115-1.205,0.229-1.83,0.344       c-8.318,1.399-17.076,0.344-24.837-3.119c-10.82-4.839-19.485-14.335-23.424-25.596c-2.016-5.734-2.803-11.995-1.413-17.936       c0.857-3.739,2.641-7.179,5.051-10.115c0.371-0.482,0.765-0.94,1.205-1.399c4.588-4.954,11.051-8.28,17.77-8.991       c7.669-0.803,15.43,1.583,21.756,6.032c-0.093-1.972-0.185-3.899-0.255-5.688c-0.626-13.693-0.718-22.798-0.718-22.798       l0.371-0.023c-0.371-3.784-0.579-7.615-0.579-11.537c0-63.349,50.832-114.702,113.55-114.702c15.106,0,29.54,2.959,42.7,8.395       c0.579,0.229,1.135,0.482,1.691,0.734c38.391,16.491,65.892,53.693,68.834,97.73l0.301-0.046c0,0-0.046,0.711-0.162,2.064       c0.116,1.927,0.162,3.876,0.162,5.826c0,9.427-1.158,18.555-3.267,27.316c-0.116,1.055-0.231,2.133-0.347,3.211       c-0.07,0.55-0.139,1.101-0.209,1.651c1.135-0.642,2.294-1.238,3.499-1.72c0.463-0.229,0.973-0.413,1.459-0.596       c4.449-1.697,9.221-2.431,13.971-1.927c5.12,0.528,10.079,2.592,14.202,5.757c0.556,0.39,1.089,0.826,1.599,1.284       c4.008,3.555,6.997,8.211,8.248,13.463C416.335,214.461,415.524,220.746,413.532,226.48z"/>
				</g>
				<g style="opacity:0.31;">
					<path style="fill:#FADED3;" d="M413.532,226.48c-3.916,11.261-12.604,20.78-23.424,25.596       c-8.596,3.853-18.373,4.679-27.501,2.546c-0.463,2.385-0.927,4.748-1.436,7.133v0.023c-2.062,10.046-4.402,19.863-7.02,29.083       c-1.158,4.06-2.966,7.798-5.282,11.261c0,0,0,0-0.023,0.023c-30.583,45.069-154.582,39.083-175.851,14.243       c-3.058-3.578-5.699-8.761-8.016-15.069c-4.055-10.94-7.067-25.275-9.337-40.39c-0.602,0.115-1.205,0.229-1.83,0.344       c-8.318,1.399-17.076,0.344-24.837-3.119c-10.82-4.839-19.485-14.335-23.424-25.596c-2.016-5.734-2.803-11.995-1.413-17.936       c0.857-3.739,2.641-7.179,5.051-10.115c0.371-0.482,0.765-0.94,1.205-1.399c4.588-4.954,11.051-8.28,17.77-8.991       c7.669-0.803,15.43,1.583,21.756,6.032c-0.093-1.972-0.185-3.899-0.255-5.688c-0.626-13.693-0.718-22.798-0.718-22.798       l0.371-0.023c-0.371-3.784-0.579-7.615-0.579-11.537c0-63.349,50.832-114.702,113.55-114.702c15.106,0,29.54,2.959,42.7,8.395       c0.579,0.229,1.135,0.482,1.691,0.734c38.391,16.491,65.892,53.693,68.834,97.73l0.301-0.046c0,0-0.046,0.711-0.162,2.064       c0.116,1.927,0.162,3.876,0.162,5.826c0,9.427-1.158,18.555-3.267,27.316c-0.116,1.055-0.231,2.133-0.347,3.211       c-0.07,0.55-0.139,1.101-0.209,1.651c1.135-0.642,2.294-1.238,3.499-1.72c0.463-0.229,0.973-0.413,1.459-0.596       c4.449-1.697,9.221-2.431,13.971-1.927c5.12,0.528,10.079,2.592,14.202,5.757c0.556,0.39,1.089,0.826,1.599,1.284       c4.008,3.555,6.997,8.211,8.248,13.463C416.335,214.461,415.524,220.746,413.532,226.48z"/>
				</g>
			</g>
			<g>
				<g>
					<g>
						<path style="fill:#331510;" d="M406.72,195.08c-4.981,1.491-10.055,4.656-15.384,9.61        c-10.055,9.289-17.724,21.009-22.196,33.876c-0.116,0.367-0.463,0.574-0.811,0.574c-0.093,0-0.185,0-0.278-0.046        c-0.463-0.138-0.695-0.642-0.556-1.078c4.564-13.142,12.395-25.115,22.659-34.587c5.143-4.771,10.079-7.959,14.967-9.633        C405.678,194.186,406.21,194.622,406.72,195.08z"/>
					</g>
				</g>
				<g>
					<g>
						<path style="fill:#331510;" d="M148.087,243.062c-0.093,0.023-0.185,0.046-0.278,0.046c-0.371,0-0.695-0.229-0.834-0.573        c-6.117-17.179-20.528-31.674-37.788-38.028c0.371-0.482,0.765-0.94,1.205-1.399c17.701,6.72,31.927,21.124,38.228,38.854        C148.782,242.42,148.527,242.902,148.087,243.062z"/>
					</g>
				</g>
			</g>
			<g>
				<g>
					<g>
						<path style="fill:#331510;" d="M249.744,275.711c-2.815,0-5.634-0.329-8.388-1.002c-0.663-0.162-1.071-0.831-0.908-1.495        c0.161-0.662,0.826-1.076,1.495-0.908c9.531,2.331,19.907,0.239,27.752-5.585c0.552-0.409,1.32-0.294,1.732,0.256        c0.407,0.548,0.291,1.323-0.256,1.73C265.004,273.282,257.391,275.711,249.744,275.711z"/>
					</g>
					<g>
						<path style="fill:#331510;" d="M323.074,193.48c-2.599-1.02-4.858-1.912-7.138-2.657c-2.273-0.73-4.502-1.362-6.788-1.834        c-2.284-0.471-4.605-0.773-7.004-0.919c-2.413-0.185-4.861-0.113-7.607-0.026l-0.049,0.001        c-0.726,0.023-1.334-0.547-1.357-1.273c-0.012-0.384,0.145-0.739,0.401-0.988c2.178-2.105,5.015-3.388,7.96-4.118        c2.962-0.692,6.078-0.739,9.086-0.203c3.006,0.534,5.93,1.659,8.441,3.407c2.503,1.731,4.66,4.044,5.824,6.883        c0.279,0.681-0.046,1.46-0.728,1.739c-0.33,0.135-0.682,0.129-0.99,0.009L323.074,193.48z"/>
					</g>
				</g>
				<g style="opacity:0.59;">
					<path style="fill:#FF8476;" d="M226.351,273.177c0,20.39-16.681,36.904-37.255,36.904c-9.221,0-17.631-3.303-24.119-8.761       c-4.055-10.94-7.067-25.275-9.337-40.39c-0.602,0.115-1.205,0.229-1.83,0.344c5.004-14.518,18.906-24.977,35.286-24.977       C209.67,236.296,226.351,252.81,226.351,273.177z"/>
				</g>
				<g style="opacity:0.59;">
					<path style="fill:#FF8476;" d="M361.17,261.755c0,0,0.023,0,0,0.023c-2.062,10.046-4.402,19.863-7.02,29.083       c-1.158,4.06-2.966,7.798-5.282,11.261c0,0,0,0-0.023,0.023c-6.348,4.954-14.365,7.936-23.099,7.936       c-20.597,0-37.279-16.514-37.279-36.904c0-20.367,16.681-36.881,37.279-36.881C342.288,236.296,356.328,246.984,361.17,261.755       z"/>
				</g>
				<g>
					<g>
						<g>
							<path style="fill:#331510;" d="M175.663,190.316c1.214-2.606,3.257-4.743,5.603-6.401c2.357-1.659,5.068-2.814,7.887-3.43         c2.818-0.623,5.755-0.722,8.59-0.249c2.823,0.505,5.578,1.519,7.818,3.296c0.515,0.409,0.602,1.157,0.193,1.673         c-0.235,0.297-0.584,0.451-0.935,0.451l-0.043,0c-2.615-0.019-4.993-0.025-7.336,0.202c-2.333,0.194-4.6,0.552-6.829,1.071         c-2.227,0.526-4.41,1.2-6.596,2.021c-2.195,0.821-4.343,1.821-6.723,2.94l-0.035,0.016c-0.598,0.281-1.311,0.024-1.592-0.574         C175.509,190.998,175.521,190.625,175.663,190.316z"/>
						</g>
						<g>
							<g>
								<g>
									<path style="fill:#331510;" d="M211.814,218.899c0,6.14-5.028,11.118-11.231,11.118c-6.202,0-11.23-4.978-11.23-11.118           c0-6.14,5.028-11.117,11.23-11.117C206.786,207.782,211.814,212.759,211.814,218.899z"/>
								</g>
								<g>
									<path style="fill:#331510;" d="M313.277,216.599c0,6.14-5.028,11.118-11.231,11.118c-6.202,0-11.23-4.978-11.23-11.118           c0-6.14,5.028-11.117,11.23-11.117C308.248,205.482,313.277,210.459,313.277,216.599z"/>
								</g>
							</g>
							<g>
								<path style="fill:#331510;" d="M245.856,259.592c-2.051,0.001-4.221-0.256-6.465-0.883          c-9.878-2.761-1.439-50.745,0.354-60.336c0.116-0.615,0.722-1.01,1.32-0.904c0.615,0.115,1.02,0.707,0.906,1.321          c-4.298,23.002-7.75,56.124-1.969,57.741c10.995,3.076,20.482-3.891,20.575-3.963c0.505-0.375,1.211-0.272,1.585,0.227          s0.275,1.207-0.226,1.583C261.593,254.635,254.877,259.592,245.856,259.592z"/>
							</g>
						</g>
					</g>
				</g>
			</g>
			<g>
				<g>
					<g>
						<g>
							<path style="fill:#FADED3;" d="M413.601,438.269c-1.437,1.193-2.896,2.385-4.356,3.555         c-15.222,12.133-31.973,22.5-49.905,30.734c-8.086,3.716-16.404,6.995-24.93,9.793         c-24.072,7.982-49.836,12.294-76.642,12.294c-23.864,0-46.94-3.44-68.719-9.817c-8.41-2.454-16.612-5.367-24.605-8.693         c-11.515-4.771-22.59-10.413-33.131-16.835c-8.109-4.931-15.871-10.321-23.308-16.147c0.278-0.619,0.579-1.216,0.903-1.812         c0.371-0.688,0.741-1.353,1.135-2.018c3.8-6.284,9.337-11.927,15.987-16.995c0.695-0.55,1.413-1.078,2.131-1.606         c10.218-7.362,22.706-13.463,35.24-18.486c0.95-0.39,1.9-0.757,2.85-1.124c0.626-0.252,1.274-0.505,1.9-0.734         c3.912-1.491,7.917,6.104,11.722,4.818c4.037-1.364,7.864-11.596,11.609-12.754c1.645-0.505,3.267-0.986,4.819-1.445         c0.88-0.275,1.738-0.528,2.572-0.78c5.468-1.582,10.333-2.959,14.318-4.106c9.661,9.473,22.798,15.367,36.282,17.523         c15.454,2.477,31.37,0.413,46.361-3.991c8.526-2.523,17.029-5.918,24.235-10.986c2.317,0.665,4.796,1.376,7.391,2.156         c0.95,0.275,1.9,0.573,2.873,0.849c1.066,0.344,2.155,0.665,3.243,1.009c4.016,1.246,7.244,10.368,11.561,11.849         c3.553,1.219,8.164-5.242,11.793-3.845c4.75,1.812,9.546,3.784,14.226,5.94c1.019,0.459,2.039,0.94,3.058,1.422         c6.209,2.936,12.21,6.193,17.678,9.771c0.765,0.482,1.506,0.986,2.224,1.514c6.927,4.725,12.951,10.046,17.4,15.941         c0.463,0.642,0.927,1.262,1.344,1.904C413.115,437.535,413.37,437.902,413.601,438.269z"/>
						</g>
						<g>
							<g>
								<g>
									<path style="fill:#FFB9C2;" d="M330.333,391.664c-20.389,13.853-45.04,21.33-69.761,21.33           c-6.95,0-13.901-0.596-20.782-1.812c-12.789-2.248-30.189-7.592-43.488-20.183c0.88-0.275,1.738-0.528,2.572-0.78           c12.743,11.583,29.146,16.56,41.333,18.716c30.027,5.275,61.861-1.468,87.254-18.119           C328.41,391.09,329.36,391.388,330.333,391.664z"/>
								</g>
							</g>
							<g>
								<g>
									<path style="fill:#FFB9C2;" d="M374.214,408.04c-30.513,10.046-62.254,15.78-94.389,17.064           c-4.171,0.16-8.271,0.252-12.349,0.252c-39.781,0-75.368-7.89-104.074-23.119c0.95-0.39,1.9-0.757,2.85-1.124           c31,15.963,69.923,23.441,113.481,21.697c31.093-1.239,61.838-6.674,91.424-16.193           C372.175,407.077,373.195,407.558,374.214,408.04z"/>
								</g>
							</g>
							<g>
								<g>
									<path style="fill:#FFB9C2;" d="M394.116,419.324c-24.35,10.872-52.269,17.89-83.246,20.941           c-13.67,1.353-27.27,1.881-40.499,1.881c-21.732,0-42.468-1.422-61.073-3.028c-26.32-2.271-56.277-5.619-83.269-16.789           c0.695-0.55,1.413-1.078,2.131-1.606c26.389,10.642,55.605,13.899,81.346,16.124c29.818,2.546,65.151,4.679,101.155,1.147           c30.166-2.982,57.412-9.748,81.23-20.184C392.657,418.292,393.398,418.797,394.116,419.324z"/>
								</g>
							</g>
							<g>
								<g>
									<path style="fill:#FFB9C2;" d="M412.86,437.168c-36.143,19.885-78.751,24.909-112.114,27.018           c-13.785,0.872-27.27,1.307-40.43,1.307c-56.532,0-107.271-8.073-151.408-24.151c0.371-0.688,0.741-1.353,1.135-2.018           c53.983,19.61,118.045,27.179,190.54,22.569c33.039-2.087,75.252-7.041,110.932-26.628           C411.979,435.907,412.443,436.526,412.86,437.168z"/>
								</g>
							</g>
						</g>
					</g>
					<g>
						<g>
							<path style="fill:#7EA8C5;" d="M189.049,484.829c-8.41-2.454-16.612-5.367-24.605-8.693c-0.046-0.436-0.07-0.849-0.116-1.284         c-2.178-24.84-0.881-49.977,3.823-74.473c8.063-3.073,16.056-5.688,23.331-7.936         C185.76,422.948,184.763,454.164,189.049,484.829z"/>
						</g>
						<g>
							<path style="fill:#7EA8C5;" d="M359.641,469.003c-0.116,1.193-0.209,2.385-0.301,3.555         c-8.086,3.716-16.404,6.995-24.93,9.793c4.564-29.702,4.124-60-0.834-89.679c7.321,2.271,15.315,4.908,23.354,8.005         C360.73,423.2,361.657,446.228,359.641,469.003z"/>
						</g>
						<g>
							<path style="fill:#FFFFFF;" d="M180.411,463.701c0,3.558-2.913,6.442-6.507,6.442s-6.507-2.884-6.507-6.442         c0-3.557,2.913-6.441,6.507-6.441S180.411,460.144,180.411,463.701z"/>
						</g>
						<g>
							<path style="fill:#FFFFFF;" d="M354.917,463.701c0,3.558-2.913,6.442-6.507,6.442s-6.507-2.884-6.507-6.442         c0-3.557,2.913-6.441,6.507-6.441S354.917,460.144,354.917,463.701z"/>
						</g>
					</g>
				</g>
				<g>
					<g>
						<path style="fill:#331510;" d="M264.042,459.022l-0.27-0.439c-7.852-12.71-14.25-25.676-20.438-38.214        c-6.181-12.526-12.571-25.479-20.41-38.167l0.489-0.303c7.852,12.71,14.25,25.676,20.438,38.214        c6.109,12.382,12.425,25.181,20.14,37.728c3.376-6.693,7.114-13.523,10.734-20.134c10.097-18.447,20.54-37.523,25.457-57.48        l0.559,0.137c-4.935,20.03-15.395,39.14-25.51,57.619c-3.699,6.758-7.524,13.746-10.956,20.576L264.042,459.022z"/>
					</g>
					<g>
						<path style="fill:#331510;" d="M271.509,464.482c0,3.989-3.266,7.223-7.296,7.223c-4.029,0-7.295-3.234-7.295-7.223        c0-3.989,3.266-7.222,7.295-7.222C268.243,457.26,271.509,460.493,271.509,464.482z"/>
					</g>
				</g>
			</g>
			<g>
				<g>
					<path style="fill:#331510;" d="M397.314,181.905h-70.387L316.872,66.538l-17.168,110.688l-48.122,1.216       c-5.398-12.959-8.966-24.725-12.326-38.693c-0.232,13.028,0.672,26.078,2.711,38.945l-36.259,0.917       c-4.749-18.051-6.441-36.353-5.699-55.138c-5.282,17.913-6.974,36.858-4.981,55.413l-55.628,1.422       c0,0-4.727-67.913,44.368-114.771c49.095-46.835,138.41-18.142,138.41-18.142C401.461,72.41,397.314,181.905,397.314,181.905z"/>
				</g>
				<g>
					<path style="fill:#331510;" d="M356.935,176.889c2.954,10.72,6.381,21.313,10.268,31.738       c1.663-6.974,5.657-12.71,10.922-17.626c3.882-3.625,8.71-6.631,10.846-11.472c2.44-5.531,0.411-12.478-4.273-16.341       c-4.685-3.863-11.538-4.684-17.27-2.627C361.697,162.618,359.456,171.393,356.935,176.889z"/>
				</g>
				<g>
					<path style="fill:#331510;" d="M140.743,178.374c1.801,14.19,5.332,28.164,10.493,41.521       c0.703-17.268,2.377-33.909,5.182-50.966c-3.087-0.199-7.215-0.411-10.182,0.456       C143.269,170.251,140.357,175.336,140.743,178.374z"/>
				</g>
			</g>
		</g>
	</g>
</g>















</svg>
